/* XPM */
static char *_ef8a24e96ec4ca9bf12460477215bed[] = {
/* columns rows colors chars-per-pixel */
"64 64 222 2 ",
"   c #000000",
".  c #000014",
"X  c #010518",
"o  c #01091C",
"O  c #011327",
"+  c #031131",
"@  c #031A32",
"#  c #051B39",
"$  c #052E2E",
"%  c #032636",
"&  c #08274B",
"*  c #043845",
"=  c #0B2E58",
"-  c #033353",
";  c #0D335E",
":  c #04385A",
">  c #0E2A65",
",  c #0E2F69",
"<  c #0D3463",
"1  c #0E336D",
"2  c #103A6B",
"3  c #0F3872",
"4  c #0F3E78",
"5  c #113D71",
"6  c #094444",
"7  c #0B4B49",
"8  c #074959",
"9  c #105C59",
"0  c #11605D",
"q  c #074468",
"w  c #06466F",
"e  c #0F437D",
"r  c #134076",
"t  c #16497C",
"y  c #0B5074",
"u  c #145377",
"i  c #155578",
"p  c #15597B",
"a  c #12646F",
"s  c #156D6A",
"d  c #157079",
"f  c #4C6E5B",
"g  c #507966",
"h  c #3E857B",
"j  c #488578",
"k  c #6B987E",
"l  c #0F4580",
"z  c #104782",
"x  c #104B86",
"c  c #114E8B",
"v  c #184D8B",
"b  c #0A598A",
"n  c #135281",
"m  c #10518E",
"M  c #115794",
"N  c #115896",
"B  c #1A5699",
"V  c #115D9B",
"C  c #086C84",
"Z  c #15698A",
"A  c #1B7189",
"S  c #0C6197",
"D  c #156898",
"F  c #0C7B96",
"G  c #187893",
"H  c #19739B",
"J  c #37698C",
"K  c #226793",
"L  c #21639C",
"P  c #0E6AA4",
"I  c #1266A6",
"U  c #1667A8",
"Y  c #136CAE",
"T  c #1775A6",
"R  c #136EB1",
"E  c #1273B5",
"W  c #127BBE",
"Q  c #2368B8",
"!  c #247BBE",
"~  c #256FC2",
"^  c #257CCA",
"/  c #1C8582",
"(  c #0C809C",
")  c #1F869C",
"_  c #208B9C",
"`  c #21959E",
"'  c #0F8BAA",
"]  c #1C8AA4",
"[  c #1A89B6",
"{  c #1196B7",
"}  c #238BA8",
"|  c #2397A6",
" . c #259DA9",
".. c #2E84BB",
"X. c #2299B4",
"o. c #25A5AE",
"O. c #28B2AF",
"+. c #27A7B4",
"@. c #29B4B0",
"#. c #26B6BC",
"$. c #2AB4BB",
"%. c #70A88F",
"&. c #769ABA",
"*. c #77A5BD",
"=. c #2DC2BE",
"-. c #5BC2BB",
";. c #7ECFB7",
":. c #1481C7",
">. c #1F89C6",
",. c #1584CD",
"<. c #1687D1",
"1. c #168BD6",
"2. c #188FD7",
"3. c #1696D8",
"4. c #1996D8",
"5. c #1B9AD9",
"6. c #2588CC",
"7. c #2896CD",
"8. c #2093D0",
"9. c #14A2C7",
"0. c #1DA2DB",
"q. c #1FABDD",
"w. c #17B3D8",
"e. c #25AAC7",
"r. c #28B8C6",
"t. c #36B0C9",
"y. c #2EACD0",
"u. c #20A4DC",
"i. c #21ABDE",
"p. c #2BB3D5",
"a. c #24B0DF",
"s. c #3193E4",
"d. c #27B9E1",
"f. c #26BCE2",
"g. c #4D9BDA",
"h. c #52AED0",
"j. c #73A8DE",
"k. c #7CB1E0",
"l. c #2FC4C7",
"z. c #29C3CA",
"x. c #30CECA",
"c. c #2AC3D1",
"v. c #2BCAD6",
"b. c #33D6D2",
"n. c #1EC1E1",
"m. c #2AC2E4",
"M. c #23C9E4",
"N. c #2CCCE7",
"B. c #2BD2E5",
"V. c #2FD8EA",
"C. c #37D5E6",
"Z. c #33DAE7",
"A. c #30D5EA",
"S. c #32DBEC",
"D. c #3FC9F6",
"F. c #3FD1F7",
"G. c #3FDEF7",
"H. c #37E3E1",
"J. c #39EDE7",
"K. c #34E3EF",
"L. c #38E8EA",
"P. c #39EDEA",
"I. c #3AF0EC",
"U. c #36E6F0",
"Y. c #36EBF1",
"T. c #39EEF3",
"R. c #3FE5F8",
"E. c #3AF3F4",
"W. c #3CFAF7",
"Q. c #3EFFF9",
"!. c #65CFC0",
"~. c #77E2D0",
"^. c #6ADBEA",
"/. c #4AFFF7",
"(. c #55FFF8",
"). c #6AE3E2",
"_. c #77E3E2",
"`. c #67FDF6",
"'. c #6EFFFA",
"]. c #73FFFA",
"[. c #7AFFFA",
"{. c #80B497",
"}. c #ADB8AD",
"|. c #90D1B6",
" X c #A1E2BE",
".X c #C2C1AC",
"XX c #8DB6E2",
"oX c #95BAE4",
"OX c #A2BFE6",
"+X c #B7C9DF",
"@X c #97EDD0",
"#X c #A3EDCA",
"$X c #A7FFDD",
"%X c #9CCAE2",
"&X c #95DDED",
"*X c #A6C3E7",
"=X c #B2D6E6",
"-X c #9DEEEE",
";X c #86FFFA",
":X c #8FFFFA",
">X c #B8E0E7",
",X c #B9E6E9",
"<X c #A9F0F0",
"1X c #A8FEF1",
"2X c #A2FEFA",
"3X c #ABFFFB",
"4X c #CADAF0",
"5X c #CCEEEF",
"6X c #D9FDEA",
"7X c #C6FFFC",
"8X c #CCFFFD",
"9X c #D4FFFD",
"0X c #D9FFFD",
"qX c #E7F7EC",
"wX c #F7FDE4",
"eX c #FEFDE2",
"rX c #EDF3FA",
"tX c #E4FFFE",
"yX c #EEFFFE",
"uX c #F0F6FB",
"iX c #F5FDFE",
"pX c #FFFFFF",
/* pixels */
"                                                                                                                                ",
"                                                                                                                                ",
"                                                                                                                                ",
"                                                                                                                                ",
"    ' { y       * 7 7 7 7 7 7 7 7 7 7 7 7 7 6 O                                 % 7 7 7 7 7 7 7 7 7 7 7 7 7 7 %         { { *   ",
"$ @.B.M.C       %X,X,X,X,X,X,X,X,X,X,X,X,X,X>XJ                                 &.,X,X,X,X,X,X,X,X,X,X,X,X,X,X&.    9 @.V.n.8   ",
"7 K.S.B.C       %X,X,X,X,X,X=X+X=X,X,X,X,X,X,XJ                                 *.,X,X,X,X,X>X+X+X,X,X,X,X,X,X*.    / K.S.M.8   ",
"7 Y.Y.B.C       ^.-X-X-X-X-X-X-X-X<X6XqXwX6X<XZ                                 t.-X-X-X-X-X-X-X-X-X5X6XwXqX5Xt.    / Y.T.M.8   ",
"7 B.w.`         K.Q.Q.W.K.K.W.Q.Q.1XeXeXeXeX6XZ                                 r.Q.Q.Q.K.K.E.Q.Q.'.wXeXeXeXwXh.    / n.n./     ",
"O / / %.{.%.    X.=.=.=.=.=.=.=.=.|..X.X.X.X}.q                                 G =.=.=.=.=.=.=.=.-..X.X.X.X.XJ     6 / / %.{.k ",
"      |.$X#X                                                                                                               X$X|.",
"      !.`.@X                                                                                                              ~.`.|.",
"      ;./.@X                                                                                                              ~.(.|.",
"      f h g                                                                                                               g j f ",
"  { 9.9.'   = v v v v v v v v v v v v v v v # 5 v v v v v v v v v v v v v v v r O v v v v v v v v v v v v v v v #     9.9.9.F   ",
"  9.! >.{   L 7.y.y.y.y.y.y.y.y.y.y.y.y.y.y.8 } y.y.y.y.y.y.y.y.y.y.y.y.y.y.y.} % y.y.y.y.y.y.y.y.y.y.y.y.y.y.6.t     w.Q 8.(   ",
"  9.8.6.{   ..G.Q.Q.Q.Q.Q.Q.Q.Q.Q.Q.Q.Q.Q.Q.s x.Q.Q.Q.Q.Q.Q.Q.Q.Q.Q.Q.Q.Q.Q.Q.b.7 Q.Q.Q.Q.Q.Q.Q.Q.Q.Q.Q.Q.Q.Q.D.K     w.6.8.F   ",
"  9.^ Q T   ..R.Q.Q.Q.Q.Q.Q.Q.Q.Q.Q.Q.Q.Q.Q.s x.Q.Q.Q.Q.Q.Q.Q.Q.Q.Q.Q.Q.Q.Q.Q.b.7 Q.Q.Q.Q.Q.Q.Q.Q.Q.Q.Q.Q.Q.Q.F.K     w.~ Q H   ",
"  ^ ~ Q U   ..R.Q.9XyXyXQ.Q.Q.Q.yXyXyXyXQ.Q.s x.Q.Q.;X:X:X:X(.Q.W.L.L.T.Q.Q.Q.b.7 Q.Q.:X:X:X:X[.Q.(.:X:X[.Q.Q.F.K     s.Q Q B   ",
". v t r < . ..R.Q.tXpXpXQ.Q.Q.Q.pXpXpXpXQ.Q.s x.Q.Q.yXpXpXpX[.Q.C.Q Q s.Q.Q.Q.b.7 Q.Q.iXpXpXpX0XQ.[.pXpX9XQ.Q.F.K     B r r =   ",
". . . . . . ..R.Q.tXpXpXpXyXQ.Q.pXpXpXpXQ.Q.s x.Q.Q.yXpXpXpX[.Q.C.Q Q Q ! Q.Q.b.7 Q.Q.iXiXpXpX0XQ.[.pXpXiX0X'.F.K               ",
". . . . v.r...R.Q.tXpXpXpXyXQ.Q.pXpXpXpXQ.Q.s x.Q.Q.yXpXpXpX[.Q.E.C.~ Q ! Q.Q.b.7 Q.Q.Q.Q.tXpX0XQ.[.pXpXpXpX[.F.K         0 c.O.",
". . . . B.v...R.Q.8XtXtXtX9XQ.Q.tXtXtXtXQ.Q.s x.Q.Q.9XtXtXtX'.Q.Q.Q.p.7.y.Q.Q.b.7 Q.Q.Q.Q.8XtX7XQ.'.tXtXtXtX'.F.K         s M.r.",
". . . . z.#...R.Q.Q.Q.Q.Q.Q.Q.Q.Q.Q.Q.Q.Q.Q.s x.Q.Q.Q.Q.Q.Q.Q.Q.Q.Q.Q.Q.Q.Q.Q.b.7 Q.Q.Q.Q.Q.Q.Q.Q.Q.Q.Q.Q.Q.Q.F.K         9 r.o.",
". . . . . . v Q Q Q Q Q Q Q Q Q Q Q Q Q Q Q & B Q Q Q Q Q Q Q Q Q Q Q Q Q Q Q B @ Q Q Q Q Q Q Q Q Q Q Q Q Q Q Q 2               ",
"            & ; ; ; ; ; ; ; ; ; ; ; ; ; ; ; O & ; ; ; ; ; ; ; ; ; ; ; ; ; ; ; & X ; ; ; ; ; ; ; ; ; ; ; ; ; ; ; @               ",
"                                                                                                                                ",
"                                                                                                                                ",
"  : 1.1.1.P   ,.1.1.W   Z Q.Q.Q.Q.Q.Q.Q.Q.Q.Q.Q.Q.Q.Q.Q.Q.Q.Q.Q.Q.Q.Q.Q.Q.Q.Q.Q.Q.Q.Q.Q.Q.Q.Q.Q.Q.Q.Q.r.  W 1.1.,.  w 1.1.1.S   ",
"  : 1.1.1.P   ,.1.1.W   Z Q.Q.Q.Q.Q.Q.Q.Q.Q.Q.Q.Q.Q.Q.Q.Q.Q.Q.Q.Q.Q.Q.Q.Q.Q.Q.Q.Q.Q.Q.Q.Q.Q.Q.Q.Q.Q.Q.r.  W 1.1.,.  w 1.1.1.S   ",
"  : 1.1.1.P   B.E.E.r.  b u.u.u.u.u.u.u.u.u.u.u.u.u.u.u.u.u.u.u.u.u.u.u.u.u.u.u.u.u.u.u.u.u.u.u.u.u.u.[   r.E.E.B.  w 1.1.1.S   ",
"  : 1.1.1.P   Z.Q.Q.c.  b 1.1.1.1.1.1.1.1.1.1.1.1.1.1.1.1.1.1.1.1.1.1.1.1.1.1.1.1.1.1.1.1.1.1.1.1.1.1.E   c.Q.Q.Z.  w 1.1.1.S   ",
"  : E.Q.Q.X.  Z.Q.Q.c.  b 1.1.1.1.1.1.1.1.1.1.1.1.1.1.1.1.1.1.1.1.1.1.1.1.1.1.1.1.1.1.1.1.1.1.1.1.1.1.E   c.Q.Q.Z.  w W.Q.Q.]   ",
"  - H.J.J.]   v.J.J.r.  y :.:.:.:.:.:.:.:.:.:.:.:.:.:.:.:.:.:.:.:.:.:.:.:.:.:.:.:.:.:.:.:.:.:.:.:.:.:.P   r.J.J.v.  q L.J.J.G   ",
"  O d / / / / / / / / / / / / / / / d # + + + + + + + + + + + + + + + + + + + + + + + + + a / / / / / / / / / / / / / / / / 8   ",
"  s Q.Q.Q.Q.Q.Q.Q.Q.Q.Q.Q.Q.Q.Q.Q.Q.Q.u > > > > > Z l.+.H M M M M M M M M V M > > > > > > H.Q.Q.Q.Q.Q.Q.Q.Q.Q.Q.Q.Q.Q.Q.Q.Q.O.  ",
"  s Q.Q.Q.Q.Q.Q.Q.Q.Q.Q.Q.Q.Q.Q.Q.Q.Q.[ E E E > > Z l.+.H M M M M M M M M V I e > > > > > H.Q.Q.Q.Q.Q.Q.Q.Q.Q.Q.Q.Q.Q.Q.Q.Q.@.  ",
"  s Q.Q.Q.Q.Q.Q.Q.Q.Q.Q.Q.Q.Q.Q.Q.Q.Q.i > > M > > > > > > > > > > > > > > > e N e > > > > H.Q.Q.Q.Q.Q.Q.Q.Q.Q.Q.Q.Q.Q.Q.Q.Q.@.  ",
"  s (.:X:X:X`.Q.Q.Q.Q.Q.Q.Q.Q.Q.Q.Q.Q.i > > M > > > > > > > > > > > > > > > > c N 1 > ` p H.Q.Q.Q.Q.Q.Q.Q.Q.Q.Q.`.:X:X:X:X].@.  ",
"  s :XpXpXpXj.5.d.N.Y.Q.Q.Q.Q.Q.Q.Q.Q.i > 1 N N  . . . .H N N N N N N N N N N , c N 1 | Z H.Q.K.K.K.K.Y.E.Q.Q.Q.3XpXpXpXpX7X@.  ",
"  s :XpXpXpX*X1.1.1.1.K.Q.Q.Q.Q.Q.Q.Q.i 1 N M M +.e.X.| H M M M M M M M M M M N , c N | | H.E.f.2.1.1.1.1.2.S.Q.3XpXpXpXpX7X@.  ",
"  s :XpXpXpXuXg.1.1.1.f.Q.Q.Q.Q.Q.Q.Q.p N c > > > > > > > > > > > > > > > > > m N 1 3 > > H.Q.Q.Y.i.1.1.1.1.i.Q.3XpXpXpXpX7X@.  ",
"  s :XpXpXpXpX5X1.1.1.N.Q.Q.Q.Q.Q.Q.Q.T c > > > > > > > > > > > > > > > > > > > m N 1 > > H.Q.Q.Q.Q.K.N.1.1.2.S.3XpXpXpXpX7X@.  ",
"  s :XpXpXpXrX4Xh.1.i.Y.Q.Q.Q.Q.Q.Q.Q.D > > > > e z M N N N N N N N N N N z z , > m N , > H.Q.Q.Q.Q.W.d.1.1.1.2.<XpXpXpXpX7X@.  ",
"  s :XpXpXpXj.1.1.1.1.3.W.Q.Q.Q.Q.Q.Q.i > > > > V Y p.m.m.m.m.m.m.m.m.m.m.X.Y 3 > > M M > H.Q.Q.Q.Q.f.1.1.1.1.1.OXpXpXpXpX7X@.  ",
"  s :XpXpXiXg.1.1.1.1.1.5.K.Q.Q.Q.Q.Q.i 5 _ c > V Y P.Q.Q.Q.Q.Q.Q.Q.Q.Q.Q.l.Y 3 > > 1 N M H.Q.Q.Q.K.2.1.4.i.1.1.g.pXpXpXpX7X@.  ",
"  s :XpXpXrX3.1.1.1.1.q.0.1.i.Y.Q.Q.Q.i | n x x V Y P.Q.Q.Q.Q.Q.Q.Q.Q.Q.Q.l.Y m R > > 1 M H.Q.Q.Q.5.1.a.E.U.2.1.2.rXpXpXpX7X@.  ",
"  s :XpXpXrX0.1.1.1.5.W.Q.S.4.2.T.Q.Q.i H 4 m l V Y P.Q.Q.Q.Q.Q.Q.Q.Q.Q.Q.l.Y ) x.> > > 1 L.Q.Q.W.5.1.m.Q.Q.0.1.1.k.pXpXpX7X@.  ",
"  s Q.Q.Q.Y.m.2.1.1.S.Q.Q.T.i.i.W.Q.Q.i > m e > V Y P.Q.Q.Q.Q.Q.Q.Q.Q.Q.Q.l.Y  .I.> > > I Y.Q.Q.Q.T.5.2.Q.Q.K.2.1.g.2X2X2X[.@.  ",
"  s Q.Q.Q.A.A.5.1.5.T.A.m.A.T.Q.Q.Q.Q.i > > > > V Y P.Q.Q.Q.Q.Q.Q.Q.Q.Q.Q.l.Y G $.> > A 1.Y.Q.Q.Q.Q.T.N.N.Q.Q.f.1.2.E.Q.Q.Q.@.  ",
"  s Q.Q.Q.A.A.m.1.5.f.W.Q.Q.Q.Q.Q.Q.Q.r.l.Y Y Y V Y P.Q.Q.Q.Q.Q.Q.Q.Q.Q.Q.l.Y o.E.> > x.u.Y.Q.Q.Q.Q.Q.Q.U.S.Q.0.1.1.K.Q.Q.Q.@.  ",
"  s Q.Q.Q.d.S.E.1.2.3.S.Q.Q.Q.Q.Q.Q.Q.Z u 3 3 3 V Y P.Q.Q.Q.Q.Q.Q.Q.Q.Q.Q.l.Y o.b.> p E.K.L.Q.Q.Q.Q.Q.Q.N.5.m.2.1.1.N.Q.Q.Q.@.  ",
"  s Q.Q.Q.a.Y.Q.N.1.1.0.Q.Q.Q.Q.Q.Q.Q.i > > x M V Y P.Q.Q.Q.Q.Q.Q.Q.Q.Q.Q.l.Y Z > > X.S.$.H.Q.Q.Q.Q.Q.Q.S.3.1.2.4.1.d.Q.Q.Q.@.  ",
"  s Q.Q.Q.i.E.Q.K.1.1.1.&XtXtXtXtXtX'.i > , M > V Y P.Q.Q.Q.Q.Q.Q.Q.Q.Q.Q.l.Y 3 > 3 <.:.> ).tXtXtXtX2XS.5.1.i.U.S.1.a.Q.Q.Q.@.  ",
"  s Q.Q.W.2.E.Q.Q.0.1.1.*XpXpXpXpXpX[.i > c 3 > V Y P.Q.Q.Q.Q.Q.Q.Q.Q.Q.Q.l.Y 3 > I 1.N > _.pXpXpXpXXX1.i.K.Q.Q.Q.0.a.Q.Q.Q.@.  ",
"  s Q.Q.W.5.W.Q.Q.m.1.1.*XpXpXpXpXpX[.i 2 D > > V Y P.Q.Q.Q.Q.Q.Q.Q.Q.Q.Q.l.Y 3 1 ,.:.1 > _.pXpXpXoX5.A.Q.Q.Q.Q.Q.N.a.Q.Q.Q.@.  ",
"  s Q.Q.Y.u.Q.Q.Q.K.1.1.*XpXpXpXpXpX[.i _ p > > V Y P.Q.Q.Q.Q.Q.Q.Q.Q.Q.Q.l.Y 3 I 1.N > > _.pXpX4Xd.W.Q.Q.Q.Q.Q.Q.E.3.W.Q.Q.@.  ",
"  s Q.Q.K.f.Q.Q.Q.W.2.1.=XpXpXpXpXpX[.) b.r > > V Y P.Q.Q.Q.Q.Q.Q.Q.Q.Q.Q.l.Y 3 :.<.3 > > _.pXrX5.W.Q.Q.Q.Q.Q.Q.Q.W.5.W.Q.Q.@.  ",
"  s Q.Q.A.E.Q.Q.Q.W.4.1.iXpXpXpXpXpX[.$.Z _ > > V Y P.Q.Q.Q.Q.Q.Q.Q.Q.Q.Q.l.Y ] A.X.> > > _.pXXXU.Q.Q.Q.Q.Q.Q.Q.Q.Q.u.W.Q.Q.@.  ",
"  s Q.Q.Q.Q.Q.Q.Q.Q.i.1.0X0X0X0X0X0X'.G | 2 > > V Y P.Q.Q.Q.Q.Q.Q.Q.Q.Q.Q.l.Y e.W.p > > > ).4Xd.Q.Q.Q.Q.Q.Q.Q.Q.Q.Q.N.Y.Q.Q.@.  ",
"  s Q.Q.Q.Q.Q.Q.Q.Q.d.1.Q.Q.Q.Q.Q.Q.Q.T D o.+.+.V Y P.Q.Q.Q.Q.Q.Q.Q.Q.Q.Q.l.Y e.r.> V I > H.A.W.Q.Q.Q.Q.Q.Q.Q.Q.Q.Q.K.S.Q.Q.@.  ",
"  s Q.Q.Q.Q.Q.Q.Q.Q.N.1.Q.Q.Q.Q.Q.Q.Q.4.1.S.Q.Q.V Y P.Q.Q.Q.Q.Q.Q.Q.Q.Q.Q.l.Y e.p > V I > H.W.Q.Q.Q.Q.Q.Q.Q.Q.Q.Q.Q.W.A.Q.Q.@.  ",
"  * O.@.@.@.@.@.@.@.] S @.@.@.@.@.@. .I I T $.$.V Y P.Q.Q.Q.Q.Q.Q.Q.Q.Q.Q.l.Y x > > m N > ` @.@.@.@.@.@.@.@.@.@.@.@.@.@.@.@.a   ",
"                                      X X X X X O @ 6 7 7 7 7 7 7 7 7 7 7 $ @ o X X X X X                                       "
};
