/* XPM */
static char *dec5131c3d5246c4bfd7b4f4ea1a5a15[] = {
/* columns rows colors chars-per-pixel */
"64 64 224 2 ",
"   c black",
".  c #00030B",
"X  c #000014",
"o  c #010B1A",
"O  c gray9",
"+  c #010C23",
"@  c #031629",
"#  c #1B142E",
"$  c #051B37",
"%  c #3B1531",
"&  c #07213D",
"*  c #2C2C2C",
"=  c #072344",
"-  c #092543",
";  c #0A2A4B",
":  c #053A48",
">  c #0A2C53",
",  c #0E3156",
"<  c #0D335C",
"1  c #10355D",
"2  c #3A2D57",
"3  c #0E3563",
"4  c #053D62",
"5  c #0F3968",
"6  c #103B6C",
"7  c #123F74",
"8  c #4D1E40",
"9  c #57254E",
"0  c #642954",
"q  c #5C3668",
"w  c #7B3A71",
"e  c #07404F",
"r  c #0A4C5D",
"t  c #14406F",
"y  c #144172",
"u  c #16467A",
"i  c #0B5170",
"p  c #0F5A72",
"a  c #34447D",
"s  c #11677E",
"d  c #6B427F",
"f  c #8D3C79",
"g  c #94407F",
"h  c #164A86",
"j  c #174B86",
"k  c #0A5586",
"l  c #175D8A",
"z  c #1B5698",
"x  c #3B4A88",
"c  c #126D84",
"v  c #146889",
"b  c #15758D",
"n  c #0D659D",
"m  c #157992",
"M  c #187699",
"N  c #377295",
"B  c #1D5CA1",
"V  c #1F5FA8",
"C  c #0F6CA7",
"Z  c #1F64AB",
"A  c #187AA7",
"S  c #1C7CB2",
"D  c #2065AC",
"F  c #3964AC",
"G  c #2265B3",
"H  c #2368B8",
"J  c #784C86",
"K  c #597093",
"L  c #2778CE",
"P  c #974586",
"I  c #9F4587",
"U  c #904D93",
"Y  c #A84C92",
"T  c #AB4C95",
"R  c #985BAA",
"E  c #AA59A7",
"W  c #BC53A1",
"Q  c #8776A5",
"!  c #B368AD",
"~  c #C457A8",
"^  c #CA5AAC",
"/  c #C95DB2",
"(  c #D65FB6",
")  c #C962B9",
"_  c #D761B9",
"`  c #8D6BC1",
"'  c #D769C5",
"]  c #DB72CD",
"[  c #C27FD8",
"{  c #E969C7",
"}  c #E46AC9",
"|  c #EC6BCC",
" . c #F36ED2",
".. c #EB71D4",
"X. c #F872D7",
"o. c #FF73DA",
"O. c #F47CDA",
"+. c #18829D",
"@. c #1986A3",
"#. c #1981AD",
"$. c #1A8CA9",
"%. c #1790A0",
"&. c #1A86B6",
"*. c #1D96B4",
"=. c #1A94BC",
"-. c #1E9AB9",
";. c #3294B4",
":. c #5A91AA",
">. c #579CB7",
",. c #708BAE",
"<. c #5AA2BC",
"1. c #1999C6",
"2. c #168BD6",
"3. c #209BC0",
"4. c #2A80DC",
"5. c #16A6CD",
"6. c #17ABD3",
"7. c #16B6DD",
"8. c #1AB6DD",
"9. c #19BBDF",
"0. c #22A6C9",
"q. c #26A5D5",
"w. c #24AED3",
"e. c #27ADDB",
"r. c #25B4D9",
"t. c #27B7DA",
"y. c #3DB5D9",
"u. c #27B6E0",
"i. c #27B9E1",
"p. c #28BEE4",
"a. c #33BFE6",
"s. c #3CBDE5",
"d. c #4DB1D4",
"f. c #6CB6CB",
"g. c #72BAD1",
"h. c #74B9D7",
"j. c #45BEE6",
"k. c #55BDE4",
"l. c #6FB8E4",
"z. c #28C0E6",
"x. c #23C8E3",
"c. c #2ED7E9",
"v. c #33E5EE",
"b. c #36EBF1",
"n. c #3AF6F5",
"m. c #3EFFF9",
"M. c #66C1D8",
"N. c #78C5D8",
"B. c #56C5E7",
"V. c #5AC6E3",
"C. c #52DCED",
"Z. c #69C9E8",
"A. c #76CAE5",
"S. c #6AD5EB",
"D. c #7BD9EB",
"F. c #46EBF1",
"G. c #64E0EE",
"H. c gray55",
"J. c #9F9F9F",
"K. c #9589B9",
"L. c #E9CFB9",
"P. c #FFFDAB",
"I. c #E6EABC",
"U. c #FBE8B9",
"Y. c #EBF3B5",
"T. c #F7F6B1",
"R. c #8E9FDB",
"E. c #BC82D8",
"W. c #AF9EDC",
"Q. c #BD96DB",
"!. c #BC99DC",
"~. c #8AB3DC",
"^. c #AFB0D9",
"/. c #BE9FE0",
"(. c #96AEE3",
"). c #8AB2E3",
"_. c #B7A4E1",
"`. c #A3B3E3",
"'. c #C48BD0",
"]. c #D889DA",
"[. c #DD8DDD",
"{. c #C197DB",
"}. c #C59BDF",
"|. c #CA9ADF",
" X c #D494DE",
".X c #D991DE",
"XX c #EA84DC",
"oX c #E28BDD",
"OX c #F886DA",
"+X c #EE97DC",
"@X c #FF91D5",
"#X c #FF9AD2",
"$X c #C7A4DB",
"%X c #FFA1D0",
"&X c #FFADD0",
"*X c #E89EE1",
"=X c #C5AFE2",
"-X c #DCADE3",
";X c #D3B7E5",
":X c #9ED2CE",
">X c #84CADA",
",X c #92C7D4",
"<X c #90D0D7",
"1X c #B5CFCF",
"2X c #BCD9C9",
"3X c #B7CCD0",
"4X c #88CDE9",
"5X c #8AD8E7",
"6X c #95DBEC",
"7X c #ABD3ED",
"8X c #89E0EF",
"9X c #95E1EE",
"0X c #97E4F0",
"qX c #C6D8C9",
"wX c #D4DBC7",
"eX c #FFC2C7",
"rX c #FFC8C4",
"tX c #CAE2C2",
"yX c #DBE4C1",
"uX c #E5E1C2",
"iX c #D8EDF7",
"pX c #E1E1E1",
"aX c #E6F3FA",
"sX c #FFFFFF",
/* pixels */
"                                                                                                                                ",
"k 2.2.2.2.2.2.2.2.2.2.2.2.2.2.2.2.2.2.2.2.2.2.2.2.2.2.2.2.2.2.2.2.2.2.2.2.2.2.2.2.2.2.2.2.2.2.2.2.2.2.2.2.2.2.2.2.2.2.2.2.2.2.k ",
"J [ [ [ [ [ [ [ [ [ [ [ [ [ [ [ [ [ [ [ [ [ [ [ [ [ [ [ [ [ [ [ [ [ [ [ [ [ [ [ [ [ [ [ [ [ [ [ [ [ [ [ [ [ [ [ [ [ [ [ [ [ [ J ",
"I W.8.8.8.8.8.8.8.8.8.8.8.8.8.5.8.8.8.8.8.8.8.o.o.o.o.o.o.o.o.o.o.' o.o.o.o.o.o.o.o.o.o.o.o.o.o.o.o.o.o.o.o.o.o.o.o.o.o.o.o.o.I ",
"I W.7.7.7.7.7.7.7.7.7.7.7.7.7.K #.7.7.7.7.7.7.o.o.o.o.o.o.o.o.o.' ' o.o.o.o.o.o.o.o.o.o.o.o.o.o.o.o.o.o.o.o.o.o.o.o.o.o.o.o.o.I ",
"I W.k.7.7.7.7.7.7.7.7.7.7.7.N.U.L.wXr.7.7.7.7.o.+X;X;X;X;X;X;X$X^.;X;X;X;X;X;X;X;X;X;X;X;X;X;X;X;X;X;X;X;X;X;X;X*Xo.o.o.o.o.o.I ",
"I W.2XY.:Xd.7.7.7.7.7.j.M.2XP.Y.,XP.wX7.7.7.7.o.-X0X0X0X0X6Xg.N.0X0X0X0X0X9X0X0X0X0X0X0X0X0X0X0X0X0X0X8XC.9X0X0X;Xo.o.o.o.o.o.I ",
"I W.h.P.P.T.yXuX2X2XuXT.P.P.P.3X2XP.P.h.7.7.7.o.-X0X6X>X>.>.6Xf.9XN.5X0X0X9XN.0X5X9X0X9X6X6X>Xg.g.N.6XF.m.A.0X0X7X!.!.O.o.o.o.I ",
"I W.7.N.P.P.P.P.P.P.P.P.P.P.tXr.T.P.P.2X7.7.7.' K.>X>X<.l d.>.<.>.<.N 9X>XN N f.:.>.>XA.<X5X5X0X0X0XS.m.m.G.0X0XZ.7.7.XXo.o.o.I ",
"I W.7.7.N.I.P.P.P.P.P.P.I.N.7.2XP.P.P.Y.7.7.7.o.-X0Xf.>.f.>X0X9XN.g.5Xf.>Xf.5X0XA.0X0X0X0X0X0X0X0XD.F.m.m.F.d.C.c.c.c.].o.o.o.I ",
"I W.7.7.7.y.,X,X2XtXqX,X7.7.M.T.P.P.P.T.7.7.7.o.-X0X0X0X0X0X0X0X0X0X0X0X0X0X0X0X0X0X0X0X0X0X0X0XS.m.m.m.m.m.m.m.m.m.m.n.`.o.o.I ",
"I W.7.7.7.7.7.7.7.7.7.7.,XI.Y.P.P.P.P.T.7.7.7.o.OX*X=XV.V.V.V.V.V.V.V.V.V.V.V.V.V.V.V.V.V.V.k.F.m.m.m.m.m.m.m.m.m.m.m.m.m.A.G.r.",
"I W.7.7.7.7.7.7.7.h.3XuXP.P.P.P.T.P.P.uX7.7.7.o.o.o..X7.7.6.#.&.A &.#.A #.#.&.=.7.7.7.7.7.x.n.m.m.m.m.m.m.m.m.m.m.m.m.n.v.v.b.%.",
"I W.7.:X:X:X:XwXU.P.P.P.P.P.P.T.T.P.P.:X7.7.7.o.o.o..X7.7.6.A A &.#.&.A S S =.=.7.7.7.7.x.m.m.m.m.m.m.m.m.m.m.m.m.b.x.].o.XX_.:.",
"I W.7.wXP.P.P.P.P.P.P.P.P.P.T.tXP.P.I.7.7.7.7.o.o.o..X7.7.6.=.=.6.1.5.1.1.1.6.6.7.7.7.9.n.m.m.m.m.m.m.n.m.m.m.v.x.7.7.XXo.o.o.I ",
"I W.7.7.3XY.P.P.P.P.P.P.Y.qX1XP.P.Y.y.7.7.7.7.OX@X@X+X$X{.{.{.{.{.{.{.{.{.{.{.{.{.{.{.A.m.b.n.m.m.m.D.~.b.m.m.n.R.{.{.O.o.o.o.I ",
"I W.7.7.7.8.~.2XuXuX3Xh.8.7.I.wX^.8.7.7.7.7.7.eXP.U.&XU.U.U.U.eX%X%X%X@Xo.o.o.o.o.o.[.F.m.m.m.n.D.!.o.o.o.E.~.4X].o.o.o.o.o.o.I ",
"I W.7.7.7.7.7.7.7.7.7.7.7.7.7.7.7.7.7.7.7.7.7.eXP.P.U.@X%X%X%X%X%X%X%X#X#X#X#X#X#Xo._.F.F.D.`.[.o.o.o.o.o.o.o.o.o.o.o.o.o.o.o.I ",
"I [.!.!.!.!.!.!.!.!.!.!.!.!.!.!.!.!.!.!.!.!.!.%XrXrXrX&XeXeXrXeXrXrXrXrXrXrXrXrXrXo.o.O.O.o.o.o.o.o.o.o.o.o.o.o.o.o.o.o.o.o.o.I ",
"% 0 0 0 0 0 0 0 0 0 0 0 0 0 0 0 0 0 0 0 0 0 0 0 0 0 0 0 0 0 0 0 0 0 0 0 0 0 0 0 0 0 0 0 0 0 0 0 0 0 0 0 0 0 0 0 0 0 0 0 0 0 0 % ",
"                                                                                                                                ",
"  c $.$.$.s   ; , , , $   j j j j 3                                                         +.$.$.$.c   - , , , &   i n n n i   ",
"  *.z.z.z.$.  t u u u -   H H H H j                                                         w.z.z.z.-.  1 u u u ,   n 2.2.2.C   ",
"  *.z.z.z.$.  t u u u -   H H H H j               j z                                       w.z.z.z.-.  1 u u u ,   n 2.2.2.C   ",
"  *.z.z.z.$.  t u u u -   H H H H j           z H H H u                                     w.z.z.z.-.  1 u u u ,   n 2.2.2.C   ",
"  p m m m i   - ; ; ; @   7 7 7 7 >           V H H H u   j j +                             c m m m p   $ ; ; ; $   4 k k k t   ",
"                                              6 H H H u   H H j                                                                 ",
"  $ - - - @   3 5 5 5 $   c c c c r             V H H u $ H H 5             q w             < 5 5 5 >   i c c c r   < u u u 3   ",
"  < u u u ,   D H H H 6   z.z.z.z.$.        6 $ j H H u 3 H G @             ^ | =           V H H H z   *.z.z.z.$.  B 4.4.4.Z   ",
"  < u u u ,   D H H H 6   z.z.z.z.$.      = H B . G H u 3 H z             ^ o.o.I           V H H H z   *.z.z.z.$.  B 4.4.4.Z   ",
"  < u u u ,   D H H H 6   z.z.z.z.$.      3 G H u u z < X 5 @           ) o.o.}             B H H H z   *.z.z.z.$.  B 4.4.4.Z   ",
"  , t t t >   B D D D 5   r.r.r.r.+.        @ z >                   8 _ o.| o.w             z D D D j   $.r.r.r.+.  z L L L B   ",
"                                                + $ 9 U W P #     q | X.Y Y ]                                                   ",
"  j D D D D D D D D D D Z D Z D F a         y ' | ..o.o.o.o./ # U X.) 9   E /               z D D D Z D D Z D D D D Z D D F x   ",
"  *.z.z.z.u.i.z.z.z.z.z.q.z.e.l.O.W           P { o.o.o.o.o.o...o.T       / Y               w.z.z.z.q.z.z.e.z.z.z.z.q.z.a.XX^   ",
"  *.z.z.z.u.i.z.z.z.z.z.q.z.z.oXo.W             < { o.o.o.o.o.o._         ( y               w.z.z.z.q.z.z.e.z.z.z.z.q.z. Xo.^   ",
"  *.z.z.z.u.i.z.z.z.z.z.q.z..Xo.o.W                 Y o.o.o.o. .2         W                 w.z.z.z.q.z.z.e.z.z.z.z.q./.o.o.^   ",
"  *.z.z.z.u.i.z.z.z.z.z.r.XXo.o.o.W                   q Y ..X.w                             w.z.z.z.q.z.z.e.z.z.z.z.Q.o.o.o.^   ",
"  *.z.z.z.u.i.z.z.z.z.l._.o.o.o.o.W                       $ >                               w.z.z.z.q.z.z.e.z.z.z._. Xo.o.o.^   ",
"  *.z.z.z.u.i.z.z.z.l.XX .] o.o.o.W                                                         w.z.z.z.q.z.z.e.z.k.oXo. Xo.o.o.^   ",
"  *.z.z.z.u.i.z.z.l.XX{ ` V ^ o.o.W       @ w.m                               : +.0.        w.z.z.z.q.z.z.e.k.oXo.| ! { o.o.^   ",
"  *.z.z.z.u.i.z.l.O.} X 5 7 { o.o.W       * aX6Xw.b                       e +.B.7XpX        w.z.z.z.q.z.z.k.oXo.o.R V x o.o.^   ",
"  *.z.z.z.u.i.a.XXo.W X X _ o.o.o.E       * sXsXiXB.0.:                 r p.Z.sXsXpX        w.z.z.z.q.z.z. Xo.o. .9 o ) o.o.!   ",
"  *.z.z.z.u.s..Xo.o.P $ ~ o.oXo.|.$.      * sXsXsXsX7XB.0.r       o b 0.Z.iXsXsXsXpX        w.z.z.z.q.z._.o.o.o.W X # | o.[.;.  ",
"  *.z.z.z.i..Xo.o.o.X. .o.o.[.|.z.$.      * sXsXsXsXsXsXiXZ.0.p M r.6XiXsXsXsXsXsXpX        w.z.z.z.q._.o.o.o.o.} U _ o.[.s.*.  ",
"  *.z.z.a.|.O.o.o.o.o.o.o.o.}.z.z.$.      * sXsXsXsXsXsXsXsXiXZ.6XaXsXsXsXsXsXsXsXpX        w.z.z.z./.o.o.oXo.o.o.o.o.[.j.z.*.  ",
"  *.z.a.'.R U X.o.o.o.o.o.(.e.z.z.$.      * sXsXsXsXsXsXsXsXsXsXsXsXsXsXsXsXsXsXsXpX        w.z.s.].R U o.[.o.o.o.o.[.j.z.z.*.  ",
"  *.z..Xd j + | o.o.o.o.).z.e.z.z.$.      * sXsXsXsXsXsXsXsXsXsXsXsXsXsXsXsXsXsXsXpX        w.a.XXg j $ _ [.o.o.o.[.j.z.z.z.*.  ",
"  *..XI X X f X.o.o.o.).z.z.e.z.z.$.      * sXsXsXsXsXsXsXsXsXsXsXsXsXsXsXsXsXsXsXpX        y.XX{ 5 X X } [.o.o._.s.z.z.z.z.*.  ",
"  ! ~ X X 9 X.o.o.o.`.z.z.z.-.*.z.$.      * sXsXsXsXsXsXsXsXsXsXsXsXsXsXsXsXsXsXsXpX        ] o.P X X ~ o.[.o.|.z.z.z.z.z.z.*.  ",
"  ^ ) X T ..o.o.o.|.z.z.0.r X s p.$.      * sXsXsXsXsXsXsXsXsXsXsXsXsXsXsXsXsXsXsXpX        { o.I X W o.o.O.oXa.z.z.z.z.z.z.*.  ",
"  ^ o.o.o.o.o.o.|.z.z.z.7 X X s z.$.      * sXsXsXsXsXsXsXsXsXsXsXsXsXsXsXsXsXsXsXpX        { o.o.o.o.o.o.].z.z.z.z.z.z.z.z.*.  ",
"  ^ o.o.o.o.o.|.z.z.z.z.M X X s z.$.      * sXsXsXsXsXsXsXsXsXsXsXsXsXsXsXsXsXsXsXpX        { o.o.o.o.o.[.e.z.z.z.z.z.z.z.z.*.  ",
"  ^ o.o.o.o.|.z.z.z.z.z.-.X X i z.$.      * sXsXsXsXsXsXsXsXsXsXsXsXsXsXsXsXsXsXsXpX        { o.o.o.o.[.z.z.z.z.z.z.z.z.z.z.*.  ",
"  ^ o.o.o.|.z.z.z.z.z.p.*.X X X p.$.      * sXsXsXsXsXsXsXsXsXsXsXsXsXsXsXsXsXsXsXpX        { o.o.o.oXz.z.$.l r.z.z.z.z.z.z.*.  ",
"  ^ o.o.|.z.z.z.z.z.z.w.i X : v j.Q       * sXsXsXsXsXsXsXsXsXsXsXsXsXsXsXsXsXsXsXpX        { o.o.|.a.z.z.@.+ e 0.r.z.z.z.z.,.  ",
"  ^ o. Xz.z.z.z.z.z.z.@.X 6 0.p.[.W       * sXsXsXsXsXsXsXsXsXsXsXsXsXsXsXsXsXsXsXpX        { o._.z.z.z.z.3.-.X X $.z.z.z.}.^   ",
"  ^ XXk.z.z.z.z.z.z.z.i.r.r.z._.o.W       * sXsXsXsXsXsXsXsXsXsXsXsXsXsXsXsXsXsXsXpX        { [.s.z.z.z.z.r.i.=.=.r.z.z.(.o.^   ",
"  ! k.z.z.z.z.z.z.z.z.z.z.z._.o.o.W       * sXsXsXsXsXsXsXsXsXsXsXsXsXsXsXsXsXsXsXpX        '.j.z.z.z.z.z.z.z.z.z.z.z.(.o.o.^   ",
"  *.z.z.z.z.z.z.z.z.z.z.a..Xo.o.o.W       * sXsXsXsXsXsXsXsXsXsXsXsXsXsXsXsXsXsXsXpX        w.z.z.z.z.z.z.z.z.z.z.z.(.o.o.o.^   ",
"  *.z.z.z.z.z.z.z.z.z.z.oXo.o.o.o.W       * sXsXsXsXsXsXsXsXsXsXsXsXsXsXsXsXsXsXsXpX        w.z.z.z.z.z.z.z.z.z.z.(.o.o.o.o.^   ",
"  *.z.z.z.z.z.z.z.z.z.oXo.o.o.o.o.W       * sXsXsXsXsXsXsXsXsXsXsXsXsXsXsXsXsXsXsXpX        w.z.z.z.z.z.z.z.z.z.}.o.o.o.o.o.^   ",
"  *.z.z.z.z.z.z.z.z.oXo.o.o.o.o.o.W       * sXsXsXsXsXsXsXsXsXsXsXsXsXsXsXsXsXsXsXpX        w.z.z.z.z.z.z.z.z.|.o.o.o.o.o.o.^   ",
"  m -.-.-.-.-.-.-.! ^ ^ ^ / ^ ^ ^ P       O J.J.J.J.J.J.J.J.J.J.J.J.J.J.J.J.J.J.J.H.        $.-.-.-.-.-.-.-.K.^ ^ ^ ^ ^ ^ ^ I   "
};
