/* XPM */
static char *_baf3c057cbd4e28a8854c4247d7cb74[] = {
/* columns rows colors chars-per-pixel */
"64 64 139 2 ",
"   c black",
".  c #14040F",
"X  c #010919",
"o  c #170512",
"O  c #31311E",
"+  c #020E21",
"@  c #011325",
"#  c #011628",
"$  c #2D0E25",
"%  c #311B27",
"&  c #311029",
"*  c #311628",
"=  c #37132D",
"-  c #312327",
";  c #09284D",
":  c #072F52",
">  c #082B50",
",  c #043759",
"<  c #04395B",
"1  c #562249",
"2  c #58234A",
"3  c #562A48",
"4  c #562F48",
"5  c #6E2E5D",
"6  c #7C3469",
"7  c #074C78",
"8  c #1B4D78",
"9  c #564046",
"0  c #81366D",
"q  c #913E7B",
"w  c #91437B",
"e  c #916D77",
"r  c #916078",
"t  c #0B5B8F",
"y  c #1B5598",
"u  c #0E68A1",
"i  c #226BBA",
"p  c #226DBC",
"a  c #1D7CC8",
"s  c #2073C1",
"d  c #AB4B91",
"f  c #B7509C",
"g  c #9E7782",
"h  c #D45EB5",
"j  c #DC62BC",
"k  c #FF73DA",
"l  c #FF78DA",
"z  c #FF7CD9",
"x  c #6181A3",
"c  c #2CC1BC",
"v  c #7BC0B6",
"b  c #1B80CC",
"n  c #168BD6",
"m  c #2181C6",
"M  c #228FCD",
"N  c #2098D4",
"B  c #24A7D8",
"V  c #20A5DC",
"C  c #25B2E0",
"Z  c #26B6E1",
"A  c #29BEE3",
"S  c #4FB1DE",
"D  c #2BC5E5",
"F  c #30D4EA",
"G  c #31D8EB",
"H  c #34E1EE",
"J  c #36E6F0",
"K  c #39EFF3",
"L  c #39F1F4",
"P  c #3BF6F6",
"I  c #3CF9F7",
"U  c #3EFFF9",
"Y  c #45FFF8",
"T  c #4AFFF9",
"R  c #4FFFF8",
"E  c #5FFDF5",
"W  c #61FBF6",
"Q  c #6EFFF7",
"!  c #73FFF6",
"~  c #7BFFF6",
"^  c #AB818D",
"/  c #DC80BD",
"(  c #DC90B9",
")  c #C1BFAA",
"_  c #DCA7B6",
"`  c #FFFDAB",
"'  c #FFFBAC",
"]  c #8299D5",
"[  c #929DD5",
"{  c #FF81D9",
"}  c #FF85DB",
"|  c #FF88DB",
" . c #FF8FD8",
".. c #FF9CD7",
"X. c #FF91D8",
"o. c #FF94D8",
"O. c #FF9ADC",
"+. c #FFAACE",
"@. c #FFA2D6",
"#. c #FFACD5",
"$. c #FFA3D9",
"%. c #FFB0D5",
"&. c #86CAE3",
"*. c #8BFAEE",
"=. c #98F5E6",
"-. c #8BF3F1",
";. c #87FFF5",
":. c #8BFFF4",
">. c #97FEF3",
",. c #90FFF4",
"<. c #A5ECED",
"1. c #A5FEF1",
"2. c #DCDBC3",
"3. c #FFCDCD",
"4. c #FFD1CB",
"5. c #FFC2D3",
"6. c #FFC4D2",
"7. c #FFC7D4",
"8. c #FFC8D4",
"9. c #FFC4DE",
"0. c #E5D3DB",
"q. c #FFD0D6",
"w. c #FFD5D8",
"e. c #FFD9D8",
"r. c #FFDCD9",
"t. c #FFD8DF",
"y. c #FFE3DB",
"u. c #FFE9DC",
"i. c #FFEEDE",
"p. c #FFF0DE",
"a. c #DEFEE9",
"s. c #FFEAE0",
"d. c #FFEEE1",
"f. c #E6FDE7",
"g. c #E9FDE7",
"h. c #E4FDE8",
"j. c #F5FDE4",
"k. c #FFFBE2",
"l. c #FFFDE2",
/* pixels */
"                                                                                                                                ",
"                                                                                                                                ",
"                                                                      2 g g g g g g g g g g g g g g g g g g g g g g g g 2       ",
"                                                                      q 5.5.5.5.5.5.5.5.5.5.5.5.5.5.5.5.5.5.5.5.5.5.5.5.q       ",
"                                                                      q ` ` ` ` ` ` ` ` ` ` ` ` ` ` ` ` ` ` ` ` ` ` ` ` q       ",
"                                                                      q ` ` ` ` ` ` ` ` ` ` ` ` ` ` ` ` ` ` ` ` ` ` ` ` q       ",
"                                                                      q ` ` ` ` ` ` ` ` ` ` ` ` ` ` ` ` ` ` ` ` ` ` ` ` q       ",
"                                                                      q ' ` ` ` ` ` ` ` ` ` ` ` ` ` ` ` ` ` ` ` ` ` ` ' q       ",
"                                                                      o % O O O O O O O O O O O O O O O O O O O O O O % o       ",
"      C U U U U U U U U U U U U U U U U U U U U U U U I 7                                                                       ",
"      [ 5.5.5.5.5.5.5.5.5.5.5.5.5.5.5.5.5.5.5.5.5.5.5.5.7                                                                       ",
"      S -.-.-.-.-.-.-.-.-.-.] &.&.-.-.-.-.-.-.-.-.-.-.-.7                                                                       ",
"      Z U U U U U U U U U K U P P U U U U Q a.a.a.U U U 7             6 j / 2.2.2.2.j     j _ _ _ ( f   5 / 2.2.2.2./ j 6       ",
"      Z <.<.<.<.<.<.<.<.<.<.<.<.<.<.<.p.l.l.l.l.l.l.i.W 7             q k o.l.l.l.l.k     #.5.5.5.5.h   0 o.l.l.l.l.o.k q       ",
"      Z U U U U U U D F L U U U U U ;.l.l.l.l.l.l.l.l.! 7             q k o.l.l.l.l.k     #.5.5.5.5.h   0 o.l.l.l.l.o.k q       ",
"      Z U U U U U G U P H U U U U U 1.l.l.l.l.l.l.l.l.:.7             q k o.l.l.l.l.k     #.5.5.5.5.h   0 o.l.l.l.l.o.k q       ",
"      u c c c c c c c c c c c c c c v ) ) ) ) ) ) ) ) x ,             q k o.l.l.l.l.k     k k k k k h   0 o.l.l.l.l.o.k q       ",
"                                                                      q k o.l.l.l.l.k     k k k k k h   0 o.l.l.l.l.o.k q       ",
"                                                                      q k o.l.l.l.l.k     k k k k k h   0 o.l.l.l.l.o.k q       ",
"                                                                      q  .$.i.i.i.i.k     b n n n n y   0 X.i.i.i.i.$. .q       ",
"                                                                      q 5.5.5.5.5.5.k     b n n n n y   0 } 5.5.5.5.5.5.q       ",
"      l 5.8.5.5.5.5.5.5.5.5.8.5.5.5.5.5.5.5.5.5.5.5.5.o.q             q 5.5.5.5.5.5.k     b n n n n y   0 } 5.5.5.5.5.5.q       ",
"       .w.l.8.5.5.5.5.5.5.7.l.y.5.5.5.5.5.5.5.5.5.5.5.5.q             q 5.5.5.5.5.5.k     b n n n n y   0 } 5.5.5.5.5.5.q       ",
"       .q.k.5.6.6.6.6.6.6.6.6.6.6.` ` ` ` ` ` ` ` ` ` ` q             q 5.5.5.5.5.5.k     b n n n n y   0 { 5.5.5.5.5.5.q       ",
"      +.' ' ' ` ` ` ` ` ` ` ` ` ` ` ` ` ` ` ` ` ` ` ` ` q             o * - - - - & &     + # # # @ X   . & - - - - - * o       ",
"      +.` ` ` ` ` ` ` ` ` ` ` ` ` ` ` ` ` ` ` ` ` ` ` ` q                                                                       ",
"       .5.3.3.3.3.3.` ` ` ` ` ` ` ` ` ` ` ` ` ` ` ` ` ` q                                                                       ",
"       .5.5.5.p.p.5.5.5.5.5.5.5.5.5.5.4.4.4.4.4.4.4.4.4.q                                                                       ",
"      z 5.5.6.l.l.6.5.5.5.5.5.5.5.5.5.5.5.5.5.i.l.7.5...q             e l.l.l.l.U U U U U U t       A U U U U U U U U U 7       ",
"                                                                      e l.l.l.l.U U U U U U t       A U U U U U U U U U 7       ",
"                                                                      e l.l.l.l.Y U U U U U t       A U U U U U U U U U 7       ",
"                                                                      e l.l.l.l.T U U U U U t       A U U U U U U U U U 7       ",
"      p n n n n n a ;   o.5.5.5.5.5.X.    l.l.l.l.l.l.l.l.            e l.l.l.l.R U U U U U t       A U U U U U U U U U 7       ",
"      s n n n n n n ;   %.5.5.5.5.5.#.    l.l.l.l.l.l.l.l.            e l.l.l.l.=.U U U U U t       A U U U U U U U U U 7       ",
"      M A A A A A A :   %.5.5.5.5.5.#.    l.l.l.l.l.l.l.l.            r l.l.l.l.l.U U U U U t       A U U U U U U U U U 7       ",
"      Z U U U U U U <   %.5.5.5.5.5.#.    l.l.l.l.l.l.l.l.            q o.l.l.l.l.E U U U U t       A U U U U U U U U U 7       ",
"      Z U U U U U U <   %.5.5.5.5.5.#.    p.p.p.p.p.p.p.p.            q k  .l.l.l.*.U U U U t       A U U U U U U U U U 7       ",
"      Z U U U U U U <   %.5.5.5.5.5.#.    5.5.5.5.5.5.5.5.            q k k } l.l.l.~ U U U t       A U U U U U U U U U 7       ",
"      Z U U U U U U <   %.5.5.5.5.5.#.    k k k k k k k k             q k k k l l.l.l.T U U t       A U U U U U U U U U 7       ",
"      Z U U U U U U <   %.5.5.5.5.5.#.    k k k k k k k k             q k k k k k l.l.,.U U t       A U U U U U U U U U 8       ",
"      Z U U U U U U <   %.5.5.5.5.5.#.    k k k k k k k k             q k k k k k l l.l.>.U t       A U U U U U U U U U e       ",
"      Z U U U U U U <   %.5.5.5.5.5.#.    k k k k k k k k             q k k k k k k k s.l.j.t       A U U U U U U U h.l.e       ",
"      Z U U U U U U <   %.5.5.5.5.5.#.    k k k k k k k k             q k k k k k k k k l.l.^       A U U U U U U l.l.l.e       ",
"      s n n n n n n ;   k k k k k k k     p n n n n n n s             q k k k k k k k k o.l.^       0.f.f.f.g.l.l.l.l.l.e       ",
"      s n n n n n n ;   k k k k k k k     p n n n n n n s             q k k k k k k k k k O.^       e.l.l.l.l.l.l.l.l.l.e       ",
"      s n n n n n n ;   k k k k k k k     p n n n n n n s             q k k k k k k k k k k d       e.l.l.l.l.l.l.l.l.l.e       ",
"      s n n n n n n ;   k k k k k k k     p n n n n n n s             q k k k k k k k k k k d       e.l.l.l.l.l.l.l.l.l.e       ",
"      s n n n n n n ;   k k k k k k k     p n n n n n n s             q k k k k k k k k k k d       } u.l.l.l.l.l.l.l.l.e       ",
"      s n n n n n n ;   9.9.9.........    p n n n n n n s             q k k k k k k k k k k d       k { t.l.l.l.l.l.l.l.e       ",
"      s n n n n n n ;   l.l.l.r.r.r.r.    p n n n n n n s             q k k k k k k k k k k d       k k k | l.l.l.l.l.l.e       ",
"      s n n n n n n ;   l.l.l.l.l.l.l.    p n n n n n n s             q k k k k k k k k k k d       k k k k { l.l.l.l.l.e       ",
"      s n n n n n n ;   l.l.l.l.l.l.l.    p n n n n n n s             q k k k k k k k k k k d       k k k k k l l.l.l.l.e       ",
"      s n n n n n n ;   l.l.l.l.l.l.l.    p n n n n n n s             q k k k k k k k k k k d       k k k k k k k k.l.l.e       ",
"      m V V V V V V >   d.d.d.d.d.d.d.    p n n n n n n s             q } } } } } } } } } } d       l } } } } } } i.l.l.e       ",
"      Z U U U U U U <   k k k k k k k     p n n n n n n s             q 5.5.5.5.5.5.5.5.5.5.d       o.5.5.5.5.5.5.5.p.l.e       ",
"      Z U U U U U U <   k k k k k k k     p n n n n n n s             q 5.5.5.5.5.5.5.5.5.5.d       o.5.5.5.5.5.5.5.5.p.e       ",
"      Z U U U U U U <   k k k k k k k     p n n n n n n s             q 5.5.5.5.5.5.5.5.5.5.d       o.5.5.5.5.5.5.5.5.5.w       ",
"      Z U U U U U U <   k k k k k k k     p n n n n n n s             $ 3 9 9 9 9 9 9 9 9 4 =       1 9 9 9 9 9 9 9 9 9 $       ",
"       .5.5.5.5.5.5.5   k k k k k k k     p n n n n n n s                                                                       ",
"       .5.5.5.5.5.5.5   k k k k k k k     p n n n n n n s                                                                       ",
"       .5.5.5.5.5.5.5   l.l.l.l.l.l.l.    N J J J J J J B             7 U U U U U U U U U U U U U U U U U U U U U U U U 7       ",
"       .5.5.5.5.5.5.5   l.l.l.l.l.l.l.    V U U U U U U Z             7 U U U U U U U U U U U U U U U U U U U U U U U U 7       ",
"       .5.5.5.5.5.5.5   r.r.r.r.r.r.r.    V U U U U U U Z             7 U U U U U U U U U U U U U U U U U U U U U U U U 7       ",
"      { 5.5.5.5.5.@.5   5.5.5.5.5.5.5.    i n n n n n n p             7 G U U U U U U U U U U U U U U U U U U U U U U G 7       "
};
