/* XPM */
static char *_8cd827478db4d05bc64dae0f22ed407[] = {
/* columns rows colors chars-per-pixel */
"64 64 189 2 ",
"   c black",
".  c #000A09",
"X  c #000014",
"o  c #021A19",
"O  c #02201F",
"+  c #030D2F",
"@  c #030D30",
"#  c #031730",
"$  c #051E3D",
"%  c #05312F",
"&  c #053130",
"*  c #051E40",
"=  c #0A1C52",
"-  c #082649",
";  c #01284E",
":  c #09284D",
">  c #012C54",
",  c #092950",
"<  c #0C315C",
"1  c #063564",
"2  c #0F3867",
"3  c #103B6C",
"4  c #113E71",
"5  c #0E5654",
"6  c #0F5A58",
"7  c #14437A",
"8  c #156B68",
"9  c #187976",
"0  c #1A817E",
"q  c #034681",
"w  c #164882",
"e  c #144E8D",
"r  c #0F5092",
"t  c #115294",
"y  c #195191",
"u  c #16579C",
"i  c #1B5598",
"p  c #1D599F",
"a  c #375B97",
"s  c #375C99",
"d  c #39639C",
"f  c #1D5CA4",
"g  c #0E69A1",
"h  c #0F6DAA",
"j  c #1C63A8",
"k  c #146FB0",
"l  c #1775BA",
"z  c #2062AA",
"x  c #216AAE",
"c  c #3765A5",
"v  c #3867A3",
"b  c #3664A9",
"n  c #2064B1",
"m  c #2368B8",
"M  c #3568B2",
"N  c #2B74B2",
"B  c #3874B5",
"V  c #3A7DBB",
"C  c #4A669C",
"Z  c #446DA0",
"A  c #4975A4",
"S  c #507EA9",
"D  c #627CB2",
"F  c #1B7BC6",
"G  c #3470C2",
"H  c #3276CD",
"J  c #3279D3",
"K  c #1D8985",
"L  c #239E9B",
"P  c #3888AB",
"I  c #2896BC",
"U  c #26ABA7",
"Y  c #27AEAA",
"T  c #2AA5BF",
"R  c #5587B0",
"E  c #6F93B6",
"W  c #68A0BE",
"Q  c #2CC1BC",
"!  c #1D80CA",
"~  c #168BD6",
"^  c #3B84C4",
"/  c #3B8ACA",
"(  c #3A9EC0",
")  c #398DD6",
"_  c #3D94D7",
"`  c #2EB7CA",
"'  c #3AB0C4",
"]  c #2F84E8",
"[  c #3081E2",
"{  c #3897E5",
"}  c #2E88F0",
"|  c #328DF0",
" . c #3594F1",
".. c #349AF1",
"X. c #3EA3E9",
"o. c #35A5F2",
"O. c #39A1F3",
"+. c #3FABF5",
"@. c #34BCF3",
"#. c #5080CE",
"$. c #5397C8",
"%. c #7C9BC7",
"&. c #5EA2DC",
"*. c #71ADC7",
"=. c #7BBCD2",
"-. c #598EE2",
";. c #448EF0",
":. c #6F9AE4",
">. c #48A5F3",
",. c #40AEF5",
"<. c #5DABF0",
"1. c #40B1F5",
"2. c #66B2F0",
"3. c #69B5F0",
"4. c #73BEF0",
"5. c #38C4CD",
"6. c #32D3CE",
"7. c #35C7D9",
"8. c #34DBD6",
"9. c #36E4DE",
"0. c #2CC6E2",
"q. c #35C4F4",
"w. c #3FCAF6",
"e. c #3FD8F6",
"r. c #37E0E5",
"t. c #39EDE7",
"y. c #3DEBEA",
"u. c #3BF3ED",
"i. c #36E6F0",
"p. c #3CF5F3",
"a. c #3DFBF6",
"s. c #3EFFF9",
"d. c #6DC4F3",
"f. c #79C5F0",
"g. c #7DD0F2",
"h. c #4FFFF9",
"j. c #55FFF9",
"k. c #67FFFA",
"l. c #79FFFA",
"z. c #8C98B7",
"x. c #9FADC9",
"c. c #A3ABC3",
"v. c #87AAEE",
"b. c #86ACF3",
"n. c #A2BCF5",
"m. c #80C3D7",
"M. c #85C9DC",
"N. c #BAC4D7",
"B. c #83CBE2",
"V. c #81CFEB",
"C. c #8CD4E4",
"Z. c #91DCE9",
"A. c #82C9F2",
"S. c #82D1F1",
"D. c #89D5F0",
"F. c #8CDAF1",
"G. c #91DEF0",
"H. c #AAC5E7",
"J. c #B4D6F9",
"K. c #96E2EF",
"L. c #97E4F0",
"P. c #8BFFFA",
"I. c #9AFFFB",
"U. c #A5FFFB",
"Y. c #B0FFFB",
"T. c #BBFFFC",
"R. c #C4C8D7",
"E. c #FFC4DF",
"W. c #CCD4E9",
"Q. c #C9DAF8",
"!. c #FFCBE9",
"~. c #FFDAEC",
"^. c #C6EDEB",
"/. c #DEE0E8",
"(. c #D4E1F3",
"). c #D6E7FC",
"_. c #C9FFFD",
"`. c #D6FFFD",
"'. c #DEFFFD",
"]. c #E3E5ED",
"[. c #E6E8ED",
"{. c gray93",
"}. c #FFE3EB",
"|. c #EDEFF2",
" X c #E4EFFD",
".X c #FFE6F6",
"XX c #EAF8FA",
"oX c #F7F8FA",
"OX c #FFFFFF",
/* pixels */
"w w T p f z         t.s.s.s.s.s.s.s.s.s.s.s.s.s.s.s.s.s.s.s.s.s.s.s.s.s.s.OXOXOXh.s.s.s.'.OXOXOXOXOXOXOXXXt.  Q Q Q 7.7.7.Q Q K ",
"7 7 ` ` T z         t.s.s.s.s.s.s.s.s.s.s.s.s.s.s.s.s.s.s.s.s.s.s.s.s.s.s.l.OXOXOXs.s.s.s.OXOXOXOXOXOXOXOX{.  U U U ` ` ` U U 9 ",
"4 4 ` ` 7.          t.s.s.s.s.s.s.s.s.s.s.s.s.s.s.s.s.s.s.s.s.s.s.s.s.s.s.s.OXOXOXk.s.s.s.`.OXOXOXOXOXOXOX{.        z f p       ",
"    6.8.9.          t.s.s.s.s.s.s.s.s.s.s.s.s.s.s.s.s.s.s.s.s.s.s.s.s.s.s.s.k.OXOXOXs.s.s.s.OXOXOXOXOXOXOX{.  8.8.8.r.r.r.8.8.L ",
"    6.8.9.          t.s.s.s.s.s.s.s.s.s.s.s.s.s.s.s.s.s.s.s.s.s.s.s.s.s.s.s.s.OXOXOXT.s.s.s._.OXOXOXOXOXOX{.  0 0 0 I I I 0 0 6 ",
"    6.8.8.8 8 8 8 O t.s.s.s.s.s.s.s.s.s.s.s.s.s.s.s.s.s.s.s.s.s.s.s.s.s.s.s.s.h.OXOXOXP.s.s.s.OXOXOXOXOXOX{.        z f p       ",
"    6.9.5 5 5 5 . u.t.s.s.s.s.s.s.s.s.s.s.s.s.s.s.s.s.s.s.s.s.s.s.s.s.s.s.s.s.s.OXOXOXOXs.s.s._.OXOXOXOXOX{.  u.u.u.p.p.p.u.u.Y ",
"    6.& & &   & & u.t.s.s.s.s.s.s.s.s.s.s.s.s.s.s.s.s.s.s.s.s.s.s.s.s.s.s.s.s.s.s.OXOXOXI.s.s.s.OXOXOXOXOX{.  & & & x z j & & O ",
"    o & & & t.& & t.t.s.s.s.s.s.s.s.s.s.s.s.s.s.s.s.s.s.s.s.s.s.s.s.s.s.s.s.s.s.s.oXOXOXOXs.s.s.T.OXOXOXOX{.  & & & x z j m & O ",
"            u.& & u.t.s.s.s.s.s.s.s.s.s.s.s.s.s.s.s.s.s.s.s.s.s.s.s.s.s.s.s.s.s.s.k.OXOXOXI.s.s.j.OXOXOXOX{.        z f n 3 7   ",
"            u.& & u.t.s.s.s.s.s.s.s.s.s.s.s.s.s.s.s.s.s.s.s.s.s.s.s.s.s.s.s.s.s.s.s.XXOXOXU.s.s.s.OXOXOXOX{.        - z < 4 7   ",
"  w e       u.% % u.t.s.s.s.s.s.s.s.s.s.s.s.s.s.s.s.s.s.s.s.s.s.s.s.s.s.s.s.s.s.s.s.s.OXOXOXs.s.s.Y.OXOXOX|.f f f f f , 2 4 7 f ",
"p p p p     u.& & u.t.s.s.s.s.s.s.s.~ ~ ~ ~ ~ ~ ~ ~ ~ ~ i.s.s.s.s.s.s.s.s.s.s.s.s.s.s.XXOXOXY.s.s.s.OXOXOX{.p p p p p : 2 4 7 p ",
"i i i w f   u.& & u.t.s.T.`.`.`.`.`.(.(.(.(.~ ~ ~ ~ ~ ~ i.s.s.s.s.s.s.s.s.s.s.s.s.s.s.s.OXOXOXs.s.s.U.OXOX|.# i i i i - 2 4 7 i ",
"  4 7 p f   u.& & u.t.s.'.OXOXOXOXOXOXOXOXOX~ ~ ~ ~ ~ ~ i.s.s.s.s.s.s.s.s.s.s.s.s.s.s.s.'.OXOXT.s.s.s.OXOX{.n           2 4 7   ",
"g l l l F F 0.h ! p.t.s.'.OX!..XOX}.}.oX}.OX~ ~ ~ ~ ~ ~ i.s.s.s.s.s.s.s.s.s.s.s.s.s.s.s.s.OXOXOXs.s.s.I.OX|.F g g g g g k k k g ",
"~ ~ ~ ~ ~ ~ ~ ~ ~ p.t.s.'.!.oXE.OX}.}.}.}.OX~ ~ ~ ~ ~ ~ i.s.s.s.s.s.s.s.s.s.s.s.s.s.s.s.s.`.OXOX_.s.s.s.OXXX~ ~ ~ ~ ~ ~ ~ ~ ~ ~ ",
"h l F F h h h h h p.t.s.'.~.~.!.OXOXOXOXOXOXs.s.s.s.s.s.s.s.s.s.s.s.s.s.s.s.s.s.s.s.s.s.s.s.OXOXOXs.s.s.P.|.h h h F h h h l l h ",
"  y i p X X X L L 6.t.s.T.`.`.`.`.`.`.`.`.`.s.s.s.s.s.s.s.s.s.s.s.s.s.s.s.s.s.s.s.s.s.s.s.s._.OXOX_.s.s.s.^.      * y i i < 7   ",
"  y i p X X 5       t.s.s.s.s.s.s.s.s.s.s.s.s.s.s.s.s.s.s.s.s.s.s.s.s.s.s.s.s.s.s.s.s.s.s.s.s.OXOXOXs.s.s.t.      * , i p p     ",
"  y i < f f N   a.9.p.s.s.s.s.s.s.s.s.s.s.s.s.s.s.s.s.s.s.s.s.s.s.s.s.s.s.s.s.s.s.s.s.s.s.s.s._.OXOXl.s.s.t.      * , <         ",
"  y i       5   a.X t.t.t.t.t.t.t.t.t.t.t.t.t.t.t.t.t.t.t.t.t.t.t.t.t.t.t.t.t.t.t.t.t.t.t.t.t.t.{.{.^.t.t.8.      $ , <         ",
"  y i       5   a.                                                                                                $ : <         ",
"  y i       5   a.                                                                                                $ : <         ",
"  y i       5   a.                                                                                                $ : <         ",
"  y i       5   a.                                                                                                $ : <         ",
"  y i       5   a.                                                                                                $ : <         ",
"  y m m m m m m m m m m m m m m m m m m m m m m m m m m m m m m m m m m m m m m m m m m m m m m m m m m m m m m m m m m m 4     ",
"  y 4 m B.B.B.B.B.B.B.B.B.B.B.B.B.B.B.B.B.B.B.B.B.B.B.B.B.B.B.B.B.B.B.B.B.B.B.B.B.B.B.B.B.B.B.B.B.B.B.B.B.B.B.B.B.B.B.B.m 4     ",
"  w f m L.L.L.L.L.L.L.L.L.L.L.L.L.L.L.L.L.L.L.L.L.L.L.L.L.L.L.L.L.L.L.L.L.L.L.L.L.L.L.L.L.L.L.L.L.L.L.L.L.L.L.L.L.L.L.L.m 4     ",
"    4 m L.L.L.L.L.L.L.L.L.L.L.L.L.L.L.L.L.L.L.L.L.L.L.L.L.L.L.L.f.3.L.L.L.F.>.L.L.L.L.L.L.L.L.L.L.L.L.L.L.L.L.L.L.L.L.L.m 4     ",
"    4 m L.L.L.L.L.L.L.L.L.L.L.L.L.L.L.L.L.L.L.K.*.L.L.L.g.*.D.L.L.D.g.L.F.f.L.L.L.L.L.L.L.L.L.L.L.L.L.L.L.L.L.L.L.L.L.L.m 4     ",
"    4 m L.L.L.L.L.L.L.L.L.L.L.L.L.L.L.L.L.L.L.K.a L.L.L.&.a f.L.L.L.4.F.4.L.L.L.L.L.L.L.L.L.L.L.L.L.L.L.L.L.L.L.L.L.L.L.m 4     ",
"    4 m L.L.L.L.L.L.L.L.L.L.L.L.L.L.L.L.L.L.L.L.L.=.L.L.$.3.L.L.L.L.S.} S.L.L.L.L.L.L.L.L.L.L.L.L.L.L.L.L.L.L.L.L.L.L.L.m 4     ",
"    4 m L.L.L.L.L.L.L.L.L.L.L.L.L.L.L.L.L.L.L.L.L.L.=.m.C.L.d.} } } } } } } } } } } F.L.L.L.L.L.L.L.L.L.L.L.L.L.L.L.L.L.m 4     ",
"    4 m L.L.L.L.L.L.S.L.L.L.L.L.L.L.L.L.L.L.M.M.M.M.A a M.M.&.) X.w.s.s.s.s.w.w.w.| F.L.L.L.L.L.L.L.L.L.L.S.L.L.L.L.L.L.m 4     ",
"    4 m L.L.L.L.L.L.| L.L.L.} L.L.L.F.F.F.F.a M M v.b.b.b.b.D M a s.s.s.s.s.s.s.s...S.F.F.L.L.L.f.3.L.L.L.| L.L.L.L.L.L.m 4     ",
"    4 m L.L.L.L.L.L.L.D.L.<.S.L.L.g.,.,.,.,.a A.OXOXOXOXOXOXOXQ.a s.s.s.s.s.s.s.s...+.,.,.,.L.L.L.>.G.L.D.K.L.L.L.L.L.L.m 4     ",
"    4 m L.L.L.L.L.L.L. .G.S.L.L.L.g.,.,.,.,.a OXOXOXOXoXOXOXOXOXa s.p.s.s.s.s.s.s...+.,.,.,.L.L.L.L.2.G. .L.L.L.L.L.L.L.m 4     ",
"    4 m L.L.L.+.} } } } } } } } ..g.,.,.B ,.a OXOXOXOXz./.OXOXOXa s.d s.s.s.s.s.s...+.B ,.,.d.} } } } } } } } } +.L.L.L.m 4     ",
"    4 m L.L.L.} +.s.s.s.s.w...} } g.,.V ,.,.a ;.OXOXOXOXOXC OX;.a ' s.s.s.s.s.1.1.| +.,.V ,.3.} } ,.OXOXOXOXOX+.} L.L.L.m 4     ",
"    4 m L.L.L.] a.y.s.s.s.s.q.} } W Z.V.a b a a a a a a a a a a a } } } } } } } } } b a (.oXJ } } OXOXOXOXOX|.OX] L.L.L.m 4     ",
"    4 m L.F.S b a P { s.s.s.q.} } *.L.F.a a ,.,.b b a a a a a a a a a a s b | ,.,.+.a a  XOXJ } } OXOXOXOX:.E a b S F.L.m 4     ",
"    4 m L.C.C.B.s a [ s.s.s.q.} } A R R a c  .,.a a a a a a a a a a a a a a B ,.+. .c a E z.J } } OXOXOXOX[ a s ].[.C.L.m 4     ",
"    4 m L.F.L.L.d a M s.s.s.q.} } a a a a a a M a a a a { /./././.H./ a a a v ,.M a a a a a J } } OXOXOXOXM a C OXOXF.L.m 4     ",
"    4 m ,.X.W W s a a @.@.o.| } } a ).OXOXOXQ.a a a oXOXOXOXOXOXOXOXOXOXW.a v ,.a e.s.s.s.( J } }  .n.n.n.a a s c.c.X.,.m 4     ",
"    4 m ,.{ a a a a a G G ..O.O.O.a OXOXOXOXoXa a a OXOXOXOXOXOXOXOXOXOX[.a v ,.a p.s.s.s.' ) O.O.O.[ G G a a a a a { ,.m 4     ",
"    4 m ,.a #.R.R.#.H a a J ,.,.,.a / N.J.N.^ a a a OXOXOXOXOXOXOXOXOXOX[.a v ,.a ^ 5.e.7.M _ ,.,.O.a a a H #.R.R.#.a ,.m 4     ",
"    4 m ,.Z OXOXOXOXQ.a a J ,.+.) a a a a a d ..a a OXOXOXOXOXOXOXOXOXOX[.a v ,...d a a a a V { ,.O.a a a Q.OXOXOXOXZ ,.m 4     ",
"    4 m ,.S OXOXOXOXOXa a a _ / B 7.e.e.' V c ,.a a OXOXOXOXOXOXOXOXOXOX[.a v ,.,.c V x.J.J.%.a ,.a a a a OXOXOXOXOXS ,.m 4     ",
"    4 m ,.S OXOXOXOXOXa a a _ / 5.s.s.s.s.y.a a a a OXOXOXOXOXOXOXOXOXOX[.a v ,.a a |.OXOXOXOXa ,.a a a a OXOXOXOXOXS ,.m 4     ",
"    4 m ,.A OXOXOXOXOXa a a _ / 5.s.s.s.s.y.a a a a oXOXOXOXOXOXOXOXOXOXW.a v ,.a a |.OXOXOXOXa ,.a a a a OXOXOXOXOXA ,.m 4     ",
"    4 m ,.a -.[.[.[.:.a a a _ / ^ y.y.y.y._ a a a a a a H [ [ [ [ [ H a a a v ,.a a _ [.[.[.H.a ,.a a a a :.[.[.[.-.a ,.m 4     ",
"    4 m ,.[ a a a a a a a a O...a a a a a a a } s a a a a a a a a a a a a a | ,.} a a a a a a H ,.J a a a a a a a a [ ,.m 4     ",
"    @ = = = = = = = = = = = = = = = = = = = = = = = = = = = = = = = = = = = = = = = = = = = = = = = = = = = = = = = = = = @     ",
"    + = = = = = = = = = = = = = = = = = = = = = = = = = = = = = = = = = = = = = = = = = = = = = = = = = = = = = = = = = = +     ",
"                                                                                                                                ",
"    ; r n q q q q q q q q q q q q q q q q q q q q q q q q q q q q q q q q q q q q q q q q q q q q q q q q q q q q q q n r ;     ",
"    ; t m q n n n q j n n n q u n n n n n j q q q q q q q q q q q q q q q q q q q q j n n n n n q t n n n j q n n n q m t ;     ",
"    ; t m q m m m q n m m m q f m m m m m n q m m m m m m m m u q m m m m m m m m q n m m m m m q u m m m n q m m m q m t ;     ",
"      1 m q m m m q n m m m q f m m m m m n q m m m m m m m m u q m m m m m m m m q n m m m m m q u m m m n q m m m q m 1       ",
"            4 4 4 ; e m m m q f m m m m m n q m m m m m m m m u q m m m m m m m m q n m m m m m q u m m m e ; 4 4 4             ",
"                              < 7 7 7 7 7 4   m m m m m m m m e > m m m m m m m m   4 7 7 7 7 7                                 ",
"                                                                                                                                "
};
