/* XPM */
static char *result[] = {
/* columns rows colors chars-per-pixel */
"32 32 17 1 ",
"  c black",
". c #181800",
"X c #4A4A52",
"o c #737B7B",
"O c #9C0808",
"+ c #EF1821",
"@ c #846300",
"# c #F76B52",
"$ c #3A9311",
"% c #3D9815",
"& c #328530",
"* c #44A318",
"= c #58AC14",
"- c #70C725",
"; c #FFDE63",
": c #C6CEDE",
"> c white",
/* pixels */
"-&*-**=-=*-&-*&*-&*-**=-=*-&-*&*",
"-*&****-***-&**&-*&****-***-&**&",
"**&*-*&****-***&**&*-*&****-***&",
"&**-***=*-=*=*-*&**-***=*-=*=*-*",
"*&*-*-*&**-***=-*&*-*-*&**-***=-",
"*&**&=&=**-&***-*&**&=&=**-&***-",
"*-=&****&***&*-&*-=&****&***&*-&",
"&*-&=-*&**=*&**-&   =-*&**=*&**-",
"*&-*-**&*&***=*- ##O **&*&***=*-",
"%&**-&****&-=** O+++O ****&-=***",
"-=*&**&-=*&*-*& ++O +O -=*&*-*&*",
"=-&*=*&*-*=*-&* O+ * +O -*=*-&*$",
"**&*****-****&* O+O @.+ -****&**",
"*-=*-=-***&*=* >XO+@;.O **&*=**&",
"&*-**-=*=**&* >X:XO@;. *=**&*=**",
"*&-&*-*$-**& >X::   ; *$-**&=*&-",
"-&*-**=-=*- >o:: & #;@ -=*-&-*&*",
"-*&****-** >:   - #+ + -***-&**&",
"**&*-*&** >o: *& #+++O ****-***&",
"&**-***= >X   - #+++O *=*-=*=*-*",
"*&*-*-*& X: **= +++O -*&**-***=-",
"*&**&=&= :: ***- +O &=&=**-&***-",
"*-=&****   *&*-&*  &****&***&*-&",
"&*-&=-*&**=*&**-&*-&=-*&**=*&**-",
"*&-*-**&*&***=*-*&-*-**&*&***=*-",
"%&**-&****&-=***%&**-&****&-=***",
"-=*&**&-=*&*-*&*-=*&**&-=*&*-*&*",
"=-&*=*&*-*=*-&*$=-&*=*&*-*=*-&*$",
"**&*****-****&****&*****-****&**",
"*-=*-=-***&*=**&*-=*-=-***&*=**&",
"&*-**-=*=**&*=**&*-**-=*=**&*=**",
"*&-&*-*$-**&=*&-*&-&*-*$-**&=*&-"
};
