/* XPM */
static char *result[] = {
/* columns rows colors chars-per-pixel */
"32 32 20 1 ",
"  c #423121",
". c #425A39",
"X c gray26",
"o c gray39",
"O c #9C5231",
"+ c #D67B42",
"@ c #3A9311",
"# c #3D9815",
"$ c #328530",
"% c #44A318",
"& c #58AC14",
"* c #70C725",
"= c #6B8C63",
"- c #FFB573",
"; c #4273CE",
": c #848484",
"> c #9CBD94",
", c #B5A594",
"< c #B5A59C",
"1 c gray97",
/* pixels */
"*$%*%%&*&%*$*%$%*$%*%%&*&%*$*%$%",
"*%$%%%%*%%%*$%%$*%$%%%%*%%%*$%%$",
"%%$%*%$%%%%*%%     %*%$%%%%*%%%$",
"$%%*%%%&%*&%& =>>>= %%%&%*&%&%*%",
"%$%*%*%$%%*% >>>>>>> *%$%%*%%%&*",
"%$%%$&$&%%* =>>>>>>>= $&%%*$%%%*",
"%*&$%%%%$%% >>=====>> %%$%%%$%*$",
"$%*$&*%$%%& .=>>>>>=. %$%%&%$%%*",
"%$*%*%%$%$  =>=...=>=  $%$%%%&%*",
"#$%%*$%%%% O..O+++O..O %%%$*&%%%",
"*&%$%%$*&% O--O+++O--O *&%$%*%$%",
"&*$%&%$%*%& +XXOOOXX+ $%*%&%*$%@",
"%%$%%%%%*% Xo::ooo::oX %*%%%%$%%",
"%*&%*&*%%% o::oXXXo::o %%%$%&%%$",
"$%*%%*&%&%%   X+++X   &%&%%$%&%%",
"%$*$%*%@*% => +---+ >= @*%%$&%$*",
"*$%*%%&*&% >=.     .=> *&%*$*%$%",
"*%$%%%%*% =>.=.,,,.=.>= %%%*$%%$",
"%%$%*%$%% >= >>.1.>> => %%%*%%%$",
"$%%*%%%& => ...>.>... >= *&%&%*%",
"%$%*%*%$ .. =>=>=>=>= .. %*%%%&*",
"%$%%$&$& -- =>=>=>=>= -- %*$%%%*",
"%*&$%%%% O+ ==>>.>>== +O %%%$%*$",
"$%*$&*%$%  =>>>.<.>>>=  %%&%$%%*",
"%$*%*%%$%$ .>>.<1<.>>. $%$%%%&%*",
"#$%%*$%%%% =..=>>>=..= %%%$*&%%%",
"*&%$%%$*&% .>>>. .>>>. *&%$%*%$%",
"&*$%&%$%*%& === & === $%*%&%*$%@",
"%%$%%%%%*%% <<. % .<< %%*%%%%$%%",
"%*&%*&*%%%$ ;; $%* ;; *%%%$%&%%$",
"$%*%%*&%&%%    %$%    &%&%%$%&%%",
"%$*$%*%@*%%$&%$*%$*$%*%@*%%$&%$*"
};
