/* XPM */
static char *aaf9f46a9cd342dede9524c9ffddeccflDzCNk8x1nWKFNfF[] = {
/* columns rows colors chars-per-pixel */
"32 32 9 1 ",
"  c #1A5318",
". c #337817",
"X c #3A9311",
"o c #3D9815",
"O c #328530",
"+ c #4EA214",
"@ c #44A318",
"# c #58AC14",
"$ c #70C725",
/* pixels */
"$O$@@O@$@@$O$@O@$O@$@@#$#@$O$@O@",
"$@@$O@$@@@@$@@@@$@O@@@@$@@@$O@@O",
"@@O$O@@@@O@$@@$O@@O@$@O@@@@$@@@O",
"O@@O@@ @$.+@@$O@O@@$@@@#@$#@#@$@",
"@@@O@@@ .+O @.O$@O@$@$@O@@$@@@#$",
"@$@.@O@ .+ @. @$@O@@O#O#@@$O@@@$",
"@@$@.+. +. . @$O@$#O@@@@O@@@O@$O",
"O@$ .+ ..+ . + $O@$O#$@O@@#@O@@$",
"@ O@ +. .+..+ @.@O$@$@@O@O@@@#@$",
"O@ O ..+.+ .+ .@oO@@$O@@@@O$#@@@",
"@O .. + . ..+. .$#@O@@O$#@O@$@O@",
"@ O  .+.+. +. O@#$O@#@O@$@#@$O@X",
"@@ .O .  .  ... @@O@@@@@$@@@@O@@",
"@O O @.OO.OOO.O @$#@$#$@@@O@#@@O",
"O@OOO$@O@O.@O.OOO@$@@$#@#@@O@#@@",
"@O@O@$@@O@OO@OO$@O$O@$@X$@@O#@O$",
"$O@$@@#$#@$O$@O@$O$@@O@$@@$O$@O@",
"$@O@@@@$@@@$O@@O$@@$O@$@@@@$@@@@",
"@@O@$@O@@@@$@@@O@@O$O@@@@O@$@@$O",
"O@@$@@@#@$#@#@$@O@@O@@ @$.+@@$O@",
"@O@$@$@O@@$@@@#$@@@O@@@ .+O @.O$",
"@O@@O#O#@@$O@@@$@$@.@O@ .+ @. @$",
"@$#O@@@@O@@@O@$O@@$@.+. +. . @$O",
"O@$O#$@O@@#@O@@$O@$ .+ ..+ . + $",
"@O$@$@@O@O@@@#@$@ O@ +. .+..+ @.",
"oO@@$O@@@@O$#@@@O@ O ..+.+ .+ .@",
"$#@O@@O$#@O@$@O@@O .. + . ..+. .",
"#$O@#@O@$@#@$O@X@ O  .+.+. +. O@",
"@@O@@@@@$@@@@O@@@@ .O .  .  ... ",
"@$#@$#$@@@O@#@@O@O O @.OO.OOO.O ",
"O@$@@$#@#@@O@#@@O@OOO$@O@O.@O.OO",
"@O$O@$@X$@@O#@O$@O@O@$@@O@OO@OO$"
};
