/* XPM */
static char *_fb7c31687bf48778e4ffaa63edc8fbasf825ZShjf52Ozcf[] = {
/* columns rows colors chars-per-pixel */
"32 32 10 1 ",
"  c black",
". c #3A9311",
"X c #3D9815",
"o c #328530",
"O c #44A318",
"+ c #58AC14",
"@ c #70C725",
"# c #4782C9",
"$ c #BDC0C9",
"% c white",
/* pixels */
"@oO@OO+@+O@o@OoO@oO@OO+@+O@o@OoO",
"@OoOOOO@OOO@oOOo@OoOOOO@OOO@oOOo",
"OOoO@OoOOOO         @OoOOOO@OOOo",
"oOO@OOO+O  %%%%%%%%%  O+O@+O+O@O",
"OoO@O@Oo %%%%%%%%%%%%% oOO@OOO+@",
"OoOOo+o+ %%%%%%%%%%%%% +OO@oOOO@",
"O@+oOOO %%%%%%%%%%%%%%% oOOOoO@o",
"oO@o+@O %%%%%%%%%   %%% OO+OoOO@",
"Oo@O@OO %%%%%%%%%   %%% OoOOO+O@",
"XoOO@oO  %%%%%%%%   %%  OOo@+OOO",
"@+OoOOo@  %%  %%%%%%%  @+OoO@OoO",
"+@oO+OoO %  %%% %%%%%%% @O+O@oO.",
"OOoOOOOO %% %%          @OOOOoOO",
"O@+O@+@OO % %%%% % % %  OOoO+OOo",
"oO@OO@+O+    %%%%      O+OOoO+OO",
"Oo@oO@O. $$$  %%%%%%%% .@OOo+Oo@",
"@oO@OO+ $$$$$$         @+O@o@OoO",
"@OoOOOO      $$$  %  OO@OOO@oOOo",
"OOoO@OoO  ###  $$   $ oOOOO@OOOo",
"oOO@OOO+ #####  $ %%  O+O@+O+O@O",
"OoO@O@O ##### ##   %  OoOO@OOO+@",
"OoOOo+o #### # # %%%  o+OO@oOOO@",
"O@+oOOO ###### #      OOoOOOoO@o",
"oO@o+@Oo ##### # %%  @OoOO+OoOO@",
"Oo@O@OOoO     ##     OOoOoOOO+O@",
"XoOO@oOOO #####        OOOo@+OOO",
"@+OoOOo@+           $$ @+OoO@OoO",
"+@oO+OoO@ %%       $$$ O@O+O@oO.",
"OOoOOOOO@ %%  OO  $$  OO@OOOOoOO",
"O@+O@+@OOO  %% o $$ @+@OOOoO+OOo",
"oO@OO@+O+OO    Oo  OO@+O+OOoO+OO",
"Oo@oO@O.@OOo+Oo@Oo@oO@O.@OOo+Oo@"
};
