/* XPM */
static char *result[] = {
/* columns rows colors chars-per-pixel */
"32 32 17 1 ",
"  c #423121",
". c #186308",
"X c #425A39",
"o c gray26",
"O c gray39",
"+ c #9C5231",
"@ c #D67B42",
"# c #3A9311",
"$ c #3D9815",
"% c #328530",
"& c #44A318",
"* c #58AC14",
"= c #70C725",
"- c #6B8C63",
"; c #848484",
": c #9CBD94",
"> c #B5A59C",
/* pixels */
"=%&=&&*=*&=%=&%&=%&=&&*=*&=%=&%&",
"=&%&&&&=&&&=%&&%=&%&&&&=&&&=%&&%",
"&&%&=&%&&&&=&&     &=&%&&&&=&&&%",
"%&&=&&&*&=*&* -:::- &&&*&=*&*&=&",
"&%&=&=&%&&=& ::::::: =&%&&=&&&*=",
"&%&&%*%*&&= -:::::::- %*&&=%&&&=",
"&=*%&&&&%&& ::::::::: &&%&&&%&=%",
"%&=%*=&%&&* ::::::::: &%&&*&%&&=",
"&%=&=&&%&%& -::ooo::- &%&%&&&*&=",
"$%&&=%&&&& +X--:::--X+ &&&%=*&&&",
"=*&%&&%=*& @oXXXXXXXo@ =*&%&=&%&",
"*=%&*&%&=& +ooooooooo+ &=&*&=%&#",
"&&%&&&&&=&& ;OoooooO; &&=&&&&%&&",
"&=*&=*=&&&% O;;;;;;;O =&&&%&*&&%",
"%&=&&=*&*&& oO;;;;;Oo *&*&&%&*&&",
"&%=%&=&#=&&   ooooo   &#=&&%*&%=",
"=%&=&&*=*& ::-     -:: =*&=%=&%&",
"=&%&&&&=& -:--:::::--:- &&&=%&&%",
"&&%&=&%&& :: ::::::: :: &&&=&&&%",
"%&&=&&&* -:- ::::::: -:- =*&*&=&",
"&%&=&=&% @@ ::::::::: @@ &=&&&*=",
"&%&&%*%* ++ ::::::::: ++ &=%&&&=",
"&=*%&&&&%  -::::-::::-  %&&&%&=%",
"%&=%*=&%&& -::::-::::- %&&*&%&&=",
"&%=&=&&%&% X-:::X:::-X %&%&&&*&=",
"$%&&=%&&&&% XXXX XXXX &&&&%=*&&&",
"=*&%&&%=*&% --- . --- %=*&%&=&%&",
"*=%&*&%&=&* --X * X-- %&=&*&=%&#",
"&&%&&&&&=&& >> &&& >> &&=&&&&%&&",
"&=*&=*=&&&%    %&=    =&&&%&*&&%",
"%&=&&=*&*&&%&*&&%&=&&=*&*&&%&*&&",
"&%=%&=&#=&&%*&%=&%=%&=&#=&&%*&%="
};
