/* XPM */
static char *result[] = {
/* columns rows colors chars-per-pixel */
"32 32 19 1 ",
"  c black",
". c #840810",
"X c #9C1021",
"o c #DE1821",
"O c #FF5A63",
"+ c #3A9311",
"@ c #3D9815",
"# c #328530",
"$ c #44A318",
"% c #58AC14",
"& c #70C725",
"* c #39638C",
"= c #4A7BAD",
"- c #6BB5E7",
"; c #848494",
": c #FF8C94",
"> c #BDC6D6",
", c #C6EFFF",
"< c white",
/* pixels */
"&#$&$$%&%$&#&$#$&#$&$$%&%$&#&$#$",
"&$#$$$$&$$$&#$$#&$#$$$$&$$$&#$$#",
"$$#$&$#$$$$&$$$#$$#$&$#$$$$&$$$#",
"#$$&$$$%$&%$%$&$#$$&$$$%$&%$%$&$",
"$#$&$&$#$$&$$$%&$#$&$&$#$$&$$$%&",
"$#$$#%#%$$&#$$$&$#$$#%#%$$&#$$$&",
"$&%#$$$$#$$$#$&#$&%#$$$$#$$$#$&#",
"#$&#%&$#$$%$#$$      &$#$$%$#$$&",
"$#&$&$$#$#$$$%  ;<<<< $#$#$$$%$&",
"@#$$&#$$$$#&% ;>>>; ;< $$$#&%$$$",
"&%$#$$#&%$   -,<<,-=   &%$#$&$#$",
"%&#$%$#$& .o *-,,-=* $#$&$%$&#$+",
"$$#$$$$$& o .XoOOooX. $$&$$$$#$$",
"$&%$&%&$$ .o **==*** %&$$$#$%$$#",
"#$&$$&%$%$ o X:<<<<. &%$%$$#$%$$",
"$#&#$&$+&$ o X<OOo.. &$+&$$#%$#&",
"&#$&$$%&%$ o X:<<<O. $%&%$&#&$#$",
"&$#$$$$&$$ o XoOOO<. $$&$$$&#$$#",
"$$#$&$#$$$ o X<<<<O. $#$$$$&$$$#",
"#$$&$$$%$& o *=--=** $$%$&%$%$&$",
"$#$&$&$#$$ o.XoOOooX. $#$$&$$$%&",
"$#$$#%#%$$&  **==*** %#%$$&#$$$&",
"$&%#$$$$#$$$         $$$#$$$#$&#",
"#$&#%&$#$$%$#$$&#$&#%&$#$$%$#$$&",
"$#&$&$$#$#$$$%$&$#&$&$$#$#$$$%$&",
"@#$$&#$$$$#&%$$$@#$$&#$$$$#&%$$$",
"&%$#$$#&%$#$&$#$&%$#$$#&%$#$&$#$",
"%&#$%$#$&$%$&#$+%&#$%$#$&$%$&#$+",
"$$#$$$$$&$$$$#$$$$#$$$$$&$$$$#$$",
"$&%$&%&$$$#$%$$#$&%$&%&$$$#$%$$#",
"#$&$$&%$%$$#$%$$#$&$$&%$%$$#$%$$",
"$#&#$&$+&$$#%$#&$#&#$&$+&$$#%$#&"
};
