/* XPM */
static char *result[] = {
/* columns rows colors chars-per-pixel */
"32 32 13 1 ",
"  c #181810",
". c #634A08",
"X c #8C6B08",
"o c #947308",
"O c #3A9311",
"+ c #3D9815",
"@ c #328530",
"# c #44A318",
"$ c #58AC14",
"% c #70C725",
"& c #A58410",
"* c #BD9410",
"= c #D6B508",
/* pixels */
"%@#%##$%$#%@%#@#%@#%##$%$#%@%#@#",
"%#@####%###%@##@%#@####%###%@##@",
"##@#%#@####%###@##@#%#@####%###@",
"@##%###$#%$#$#%#@##%###$#%$#$#%#",
"#@#%#%#@##%###$%#@#%#%#@##%###$%",
"#@##@$@$##%@###%#@##@$@$##%@###%",
"#%$@####@###@#%@#%$@####@###@#%@",
"@#%@$%#@##$#@##%@#%@$%#@##$#@##%",
"#@%#%##@#@###$#%#@%#%##@#@###$#%",
"+@##%@####@%$###+@##%@####@%$###",
"%$#@##@%$#@#        ##@%$#@#%#@#",
"$%@#$#@#    .=.  .=.    %#$#%@#O",
"##@##### ==*o=&  &=o*== %####@##",
"#%$#%$%# ==*..&==&..*== ##@#$##@",
"@#%##%$# ==*&&=&&=&&*== $##@#$##",
"#@%@#%#O &&*======X=*&& %##@$#@%",
"%@#%##$%    ======&=    $#%@%#@#",
"%#@####%### ======X= ##%###%@##@",
"##@#%#@#### ======== #@####%###@",
"@##%###$#%$ ======== ##$#%$#$#%#",
"#@#%#%#@##% ======== %#@##%###$%",
"#@##@$@$##% &&&&&&&& $@$##%@###%",
"#%$@####@##          ###@###@#%@",
"@#%@$%#@##$#@##%@#%@$%#@##$#@##%",
"#@%#%##@#@###$#%#@%#%##@#@###$#%",
"+@##%@####@%$###+@##%@####@%$###",
"%$#@##@%$#@#%#@#%$#@##@%$#@#%#@#",
"$%@#$#@#%#$#%@#O$%@#$#@#%#$#%@#O",
"##@#####%####@####@#####%####@##",
"#%$#%$%###@#$##@#%$#%$%###@#$##@",
"@#%##%$#$##@#$##@#%##%$#$##@#$##",
"#@%@#%#O%##@$#@%#@%@#%#O%##@$#@%"
};
