/* XPM */
static char *_5c705a6333a49b1b878bb1184c45366dJoYXKcEMrnpvzg6[] = {
/* columns rows colors chars-per-pixel */
"32 32 18 1 ",
"  c black",
". c #3A9311",
"X c #3D9815",
"o c #328530",
"O c #44A318",
"+ c #58AC14",
"@ c #70C725",
"# c #0011B5",
"$ c #0014CD",
"% c #0017E9",
"& c #0920F7",
"* c #1F34F8",
"= c #3A4DFF",
"- c #4557FE",
"; c #6070FC",
": c #7F8BFA",
"> c #98A1F8",
", c #B3B9FA",
/* pixels */
"###############  oO@OO+@+O@o@Oo ",
"##############  @OoOOOO@OOO@oO  ",
"$$$$$$$$$$$$$$ oOOoO@OoOOOO@O  $",
"$$$$$$$$$$$$$  OoOO@OOO+O@+   $$",
"$$$$$$$$$$$$$ +@OoO@O@OoOO  $$$$",
"%%%%%%%%%%%%% O@OoOOo+o+O  %%%%%",
"%%%%%%%%%%%%  @oO@+oOOOO  %%%%%%",
"%%%%%%%%%%%% OO@oO@o+@O  %%%%%%%",
"&&&&&&&&&&&  +O@Oo@O@O  &&&&&&&&",
"&&&&&&&&&&& +OOOXoOO@  &&&&&&&&&",
"&&&&&&&&&&  @OoO@+Oo  &&&&&&&&&&",
"********** O@oO.+@o  ***********",
"********** OOoOOOO  ************",
"*********  O+OOoO  *************",
"========= OoO+OO  ==============",
"========  Oo+Oo@ ===============",
"======== O@o@Oo  ========   ====",
"-------- OO@oO  ------    O ----",
"-------  OO@OO         OOO  ----",
"------  O@+O+O@OoOO@OOO+O@ -----",
";;;;;; oOO@OOO+@OoO@O@OoO  ;;;;;",
";;;;;  +OO@oOOO@OoOOo+o+  ;;;;;;",
";;;;; OOoOOOo     +oOO   ;;;;;;;",
"::::  Oo     :::  @o+  :::::::::",
":::: O  :::::::: o@O  ::::::::::",
"::::   ::::::::: oOO :::::::::::",
">>>>>>>>>>>>>>>> +   >>>>>>>>>>>",
">>>>>>>>>>>>>>>  @ >>>>>>>>>>>>>",
">>>>>>>>>>>>>>> O  >>>>>>>>>>>>>",
",,,,,,,,,,,,,,    ,,,,,,,,,,,,,,",
",,,,,,,,,,,,,, O ,,,,,,,,,,,,,,,",
",,,,,,,,,,,,,,   ,,,,,,,,,,,,,,,"
};
