/* XPM */
static char *result[] = {
/* columns rows colors chars-per-pixel */
"32 32 31 1 ",
"  c black",
". c gray12",
"X c #0A1637",
"o c #232222",
"O c #2A2A29",
"+ c #31302D",
"@ c #3A3935",
"# c #355A3F",
"$ c #56503D",
"% c #0D1F50",
"& c #102255",
"* c #112661",
"= c #122B70",
"- c #122C73",
"; c #142F77",
": c #887F59",
"> c #3A9311",
", c #3D9815",
"< c #328530",
"1 c #44A318",
"2 c #58AC14",
"3 c #70C725",
"4 c #FAED00",
"5 c #A29769",
"6 c #BBAF75",
"7 c #19388C",
"8 c #76B69B",
"9 c #D4C681",
"0 c #8AD1CD",
"q c #A1DDDB",
"w c #84E1DB",
/* pixels */
"3<131123213<31<13<131123213<31<1",
"31<111131113<11<31<111131113<11<",
"11<131<11113111<11<131<11113111<",
"<113111213212131<113111213.12131",
"1<13131<113111231<13131<11.1.123",
"1<11<2<2113<11131<11<2<211..1113",
"132<1111<111<13<132<1111<1.1<.3<",
"<13<231<1121<113<13<231<112..113",
"1                               ",
"  99999999999999999999555:99999 ",
" 999999999999999999999:99$99999 ",
" 999999999999999999999555699999 ",
"   7777777777777777744477777777 ",
" 0w 7;;77  ;;  ;;  44  ;;  ;;   ",
" 0w      qq  qq  qq  qq  qq  qq ",
" 0w XXXX ww  ww  ww  ww  ww  w8 ",
" ww &XX& w8  w8  w8  w8  w8  w# ",
" w  &XX&   %%  %4  4%  %%  %%   ",
"  7 &**& 9999999994449999999999 ",
" 77 =--=   %;7;;;44477  %  %;;; ",
"  7 -77- @O %;;;4447; @O @O %;; ",
"1<   77  oo           +o +o     ",
"132<    <  1<13<132<11  <  1<13<",
"<13<231<1121<113<13<231<1121<113",
"1<31311<1<1112131<31311<1<111213",
",<113<1111<32111,<113<1111<32111",
"321<11<321<131<1321<11<321<131<1",
"23<121<131213<1>23<121<131213<1>",
"11<1111131111<1111<1111131111<11",
"1321323111<1211<1321323111<1211<",
"<1311321211<1211<1311321211<1211",
"1<3<131>311<21<31<3<131>311<21<3"
};
