/* XPM */
static char *result[] = {
/* columns rows colors chars-per-pixel */
"32 32 17 1 ",
"  c #553337",
". c #23503E",
"X c #2C673B",
"o c #327037",
"O c #69483D",
"+ c #317642",
"@ c #815B47",
"# c #3A9311",
"$ c #3D9815",
"% c #328530",
"& c #44A318",
"* c #58AC14",
"= c #70C725",
"- c #429048",
"; c #51A541",
": c #63C74D",
"> c #96C77B",
/* pixels */
"=%&=&&*=*&=%=------=&&*=*&=%=&%&",
"=&%&&&&=&&&-->>>>>>--&&=&&&=%&&%",
"&&%&=&%&&--:>>>>>>>>:--&&&&=&&&%",
"%&&=&&&*-;:::>>>>>>:::;-&=*&*&=&",
"&%&=&=&+;;::::::::::::;;+&=&&&*=",
"&%&&%*+-;;-::::::::::-;;-+=%&&&=",
"&=*%&&+-;;;--::::::--;;;-+&&%&=%",
"%&=%*+--;;;;;;;--;;;;;;;--+&%&&=",
"&%=&=+---;;;;;;;;;;;;;;---+&&*&=",
"$%&&+-o---;;;;;;;;;;;;---o-+*&&&",
"=*&%+-oo----;;;--;;;----oo-+=&%&",
"*=%&+----o------------o----+=%&#",
"&&%&.----oo----------oo----.&%&&",
"&=*&.---------oooo---------.*&&%",
"%&=.++---------oo---------++.*&&",
"&%=.+++XX--------------XX+++.&%=",
"=%&.+++X----------------X+++.&%&",
"=&%&.++++---XXX--XXX---++++.%&&%",
"&&%&=.+++++++X----X+++++++.=&&&%",
"%&&=&&..+++++++--+++++++..*&*&=&",
"&%&=&=&%.++++++++++++++.&&=&&&*=",
"&%&&%*%*&.+++.++++.+++.*&&=%&&&=",
"&=*%&&&&%&...O.++.O...&&%&&&%&=%",
"%&=%*=&%&& @OOO..OOO@ &%&&*&%&&=",
"&%=&=&&%& @@OOOOOOOO@@ %&%&&&*&=",
"$%&&=%&&&@OOO OOOO OOO@&&&%=*&&&",
"=*&%&&%=*  O  O@@O  O  =*&%&=&%&",
"*=%&*&%&=&*   O@@O   &%&=&*&=%&#",
"&&%&&&&&=&&&& OOOO &&&&&=&&&&%&&",
"&=*&=*=&&&%&*&OOOO*&=*=&&&%&*&&%",
"%&=&&=*&*&&%&*&OO&=&&=*&*&&%&*&&",
"&%=%&=&#=&&%*&%=&%=%&=&#=&&%*&%="
};
