/* XPM */
static char *cbba4c6fd92b42c99d61cb816c24ab56[] = {
/* columns rows colors chars-per-pixel */
"64 64 70 1 ",
"  c #3D120E",
". c #39160F",
"X c #371710",
"o c #321A11",
"O c #331C17",
"+ c #3D1518",
"@ c #351E1D",
"# c #3B252D",
"$ c #41131B",
"% c #431626",
"& c #451425",
"* c #47152B",
"= c #57132E",
"- c #4B1633",
"; c #521430",
": c #52183E",
"> c #462534",
", c #4A2B3D",
"< c #511D45",
"1 c #5D1B4F",
"2 c #7A1040",
"3 c #7D1042",
"4 c #7D1B5E",
"5 c #483447",
"6 c #543852",
"7 c #523F58",
"8 c #593F5C",
"9 c #6B1F61",
"0 c #6C1F63",
"q c #791F68",
"w c #6D2064",
"e c #74226E",
"r c #782372",
"t c #7F2170",
"y c #5C4362",
"u c #5E4566",
"i c #604769",
"p c #62496C",
"a c #645175",
"s c #6B537A",
"d c #6B547B",
"f c #81124B",
"g c #8A165A",
"h c #861F6E",
"j c #881F6E",
"k c #8F1C6C",
"l c #9D1767",
"z c #9B1768",
"x c #9C1768",
"c c #921B6B",
"v c #911C6B",
"b c #991869",
"n c #AC0D61",
"m c #A71163",
"M c #A41364",
"N c #A21465",
"B c #A81063",
"V c #82206F",
"C c #85206F",
"Z c #822070",
"A c #705983",
"S c #705B85",
"D c #745E8A",
"F c #77628F",
"G c #796492",
"H c #7B6696",
"J c #7E6899",
"K c #826C9F",
"L c #856FA3",
"P c #8771A6",
/* pixels */
"oooooooooooooooooooooooooooooooooooooooooooooooooooooooooooooooo",
"oo#HHHHHHHHHHHHHHHHHHHHHHHHHHHHHHHHHHHHHHHHHHHHHHHHHHHHHHHHHH#oo",
"oOSPPPPPPPPPPPPPPPPPPPPPPPPPPPPPPPPPPPPPPPPPPPPPPPPPPPPPPPPPPSOo",
"oaLPPPPPPPPPPPPPPPPPPPPPPPPPPPPPPPPPPPPPPPPPPPPPPPPPPPPPPPPPPLao",
"@PPPPPPPPPPPPPPPPPPPPPPPPPPPPPPPPPPPPPPPPPPPPPPPPPPPPPPPPPPPPPP@",
"@PL>>>>>>>>>>>>>>>>>>>>>>>>>>>>>>>>>>>>>>>>>>>>>>>>>>>>>>>>>>LP@",
"@PL$111111111111111111111111111**111111111111111111111111111$LP@",
"@PL&rrrrrrrrrrrrrrrrrrrrrrrrrrr::rrrrrrrrrrrrrrrrrrrrrrrrrrr&LP@",
"@PL&rrrrrrrrrrrrrrrrrrrrrrrrrrr::rrrrrrrrrrrrrrrrrrrrrrrrrrr&LP@",
"@PL&rrrrrrrrrrrrrrrrrrrrrrrrrrr::rrrrrrrrrrrrrrrrrrrrrrrrrrr&LP@",
"@PL&rrrtbbbbbbbbbbbbbbbbbbbCrrr::rrrCbbbbbbbbbbbbbbbbbbbtrrr&LP@",
"@PL&rrrjmmmmmmmmmmmmmmmmmmmkrrr::rrrkmmmmmmmmmmmmmmmmmmmjrrr&LP@",
"@PL&rrZMrrrrrrrrrrrrrrrrrrrxkrr::rrkxrrrrrrrrrrrrrrrrrrrMZrr&LP@",
"@PL&rrZMrrjnnnlrrrrcnnncrrrxkrr::rrkxrrrcnnncrrrrlnnnjrrMZrr&LP@",
"@PL&rrZMrVNnnnBcrrjMnnnMjrrxkrr::rrkxrrjMnnnMjrrcBnnnNVrMZrr&LP@",
"@PL&rrZMrhnnnnnzrrcnnnnnvrrxkrr::rrkxrrvnnnnncrrznnnnnhrMZrr&LP@",
"@PL&rrZMrhnnnnnzrrcnnnnnvrrxkrr::rrjxrrvnnnnncrrznnnnnhrMZrr&LP@",
"@PL&rrZMrhnnnnnzrrcnnnnnvrrxkrr::rrjxrrvnnnnncrrznnnnnhrMZrr&LP@",
"@PL&rrZMrhnnnnnzrrcnnnnnvrrxkrr::rrkxrrvnnnnncrrznnnnnhrMZrr&LP@",
"@PL&rrZMrhnnnnnzrrcnnnnnvrrxkrr::rrkxrrvnnnnncrrznnnnnhrMZrr&LP@",
"@PL&rrZMrhnnnnnzrrcnnnnnvrrxkrr::rrkxrrvnnnnncrrznnnnnhrMZrr&LP@",
"@PL&rrZMrhnnnnnzrrcnnnnnvrrxkrr::rrkxrrvnnnnncrrznnnnnhrMZrr&LP@",
"@PL&rrZMrhnnnnnzrrcnnnnnvrrxjrr::rrkxrrvnnnnncrrznnnnnhrMZrr&LP@",
"@PL&rrZMrhnnnnnzrrcnnnnnvrrxjrr::rrkxrrvnnnnncrrznnnnnhrMZrr&LP@",
"@PL&rrZMrhnnnnnzrrcnnnnnvrrxkrr::rrjxrrvnnnnncrrznnnnnhrMZrr&LP@",
"@PL&rrZMrhnnnnnzrrcnnnnnvrrxkrr::rrjxrrvnnnnncrrznnnnnhrMZrr&LP@",
"@PL&rrZMrhnnnnnzrrcnnnnnvrrxkrr::rrkxrrvnnnnncrrznnnnnhrMZrr&LP@",
"@PL&rrZMrhnnnnnzrrcnnnnnvrrxkrr::rrkxrrvnnnnncrrznnnnnhrMZrr&LP@",
"@PL&rrZMrhnnnnnzrrcnnnnnvrrxkrr::rrkxrrvnnnnncrrznnnnnhrMZrr&LP@",
"@PL&rrZMrhnnnnnzrrcnnnnnvrrxkrr::rrkxrrvnnnnncrrznnnnnhrMZrr&LP@",
"@PL&rrZMrhnnnnnzrrcnnnnnvrrxjrr::rrkxrrvnnnnncrrznnnnnhrMZrr&LP@",
"@PL&rrZMrhnnnnnzrrcnnnnnvrrxjrr::rrkxrrvnnnnncrrznnnnnhrMZrr&LP@",
"@PL&rrZMrhnnnnnzrrcnnnnnbq0g4er::re4g0qbnnnnncrrznnnnnhrMZrr&LP@",
"@PL&rrZMrhnnnnnzrrcnnnnnn2   9r::r9   2nnnnnncrrznnnnnhrMZrr&LP@",
"@PL&rrZMrhnnnnnzrrcnnnnn3 SPu 9::9 uPS 3nnnnncrrznnnnnhrMZrr&LP@",
"@PL&rrZMrhnnnnnzrrcnnnnn3sLPK89::98KPLs3nnnnncrrznnnnnhrMZrr&LP@",
"@PL&rrZMrhnnnnnzrrcnnnnn3APPPy9::9yPPPA3nnnnncrrznnnnnhrMZrr&LP@",
"@PL&rrZMrhnnnnnzrrcnnnnn3APPPy9::9yPPPA3nnnnncrrznnnnnhrMZrr&LP@",
"@PL&rrZMrhnnnnnzrrcnnnnn3 SPu 9::9 uPS 3nnnnncrrznnnnnhrMZrr&LP@",
"@PL&rrZMrhnnnnnzrrcnnnnn3Ap+Dy9::9yD+pA3nnnnncrrznnnnnhrMZrr&LP@",
"@PL&rrZMrhnnnnnzrrcnnnnn3AFdJy9::9yJdFA3nnnnncrrznnnnnhrMZrr&LP@",
"@PL&rrZMrhnnnnnzrrcnnnnn3APLPy9::9yPLPA3nnnnncrrznnnnnhrMZrr&LP@",
"@PL&rrZMrhnnnnnzrrcnnnnn3Ap Dy9::9yD pA3nnnnncrrznnnnnhrMZrr&LP@",
"@PL&rrZMrhnnnnnzrrcnnnnn3APPPy9::9yPPPA3nnnnncrrznnnnnhrMZrr&LP@",
"@PL&rrZMrhnnnnnzrrcnnnnn36iii,9::9,iii63nnnnncrrznnnnnhrMZrr&LP@",
"@PL&rrZMrhnnnnnzrrcnnnnnf--=;-w::w-;=--fnnnnncrrznnnnnhrMZrr&LP@",
"@PL&rrZMrhnnnnnzrrcnnnnnvrrxkrr::rrkxrrvnnnnncrrznnnnnhrMZrr&LP@",
"@PL&rrZMrhnnnnnzrrcnnnnnvrrxkrr::rrkxrrvnnnnncrrznnnnnhrMZrr&LP@",
"@PL&rrZMrhnnnnnzrrcnnnnnvrrxkrr::rrkxrrvnnnnncrrznnnnnhrMZrr&LP@",
"@PL&rrZMrhnnnnnzrrcnnnnnvrrxkrr::rrkxrrvnnnnncrrznnnnnhrMZrr&LP@",
"@PL&rrZMrhnnnnnzrrcnnnnnvrrxkrr::rrkxrrvnnnnncrrznnnnnhrMZrr&LP@",
"@PL&rrZMrhnnnnnzrrcnnnnnvrrxkrr::rrkxrrvnnnnncrrznnnnnhrMZrr&LP@",
"@PL&rrZMrhnnnnnzrrcnnnnnvrrxkrr::rrkxrrvnnnnncrrznnnnnhrMZrr&LP@",
"@PL&rrZMrhnnnnnzrrcnnnnnvrrxkrr::rrkxrrvnnnnncrrznnnnnhrMZrr&LP@",
"@PL&rrZMrhnnnnnzrrcnnnnnvrrxkrr::rrkxrrvnnnnncrrznnnnnhrMZrr&LP@",
"@PL&rrZMrhnnnnnzrrcnnnnnvrrxkrr::rrkxrrvnnnnncrrznnnnnhrMZrr&LP@",
"@PL&rrZMrrjnnnlrrrrcnnncrrrxkrr::rrkxrrrcnnncrrrrlnnnjrrMZrr&LP@",
"@PL&rrZMrrtcccjrrrrCcccCrrrxkrr::rrkxrrrCcccCrrrrjccctrrMZrr&LP@",
"@PL&rrZNtttttttttttttttttttbjrr::rrjbtttttttttttttttttttNZrr&LP@",
"@PL&rrrVnnnnnnnnnnnnnnnnnnnkrrr::rrrknnnnnnnnnnnnnnnnnnnVrrr&LP@",
"@PL&rrrrrrrrrrrrrrrrrrrrrrrrrrr::rrrrrrrrrrrrrrrrrrrrrrrrrrr&LP@",
"OGF+<<<<<<<<<<<<<<<<<<<<<<<<<<<%%<<<<<<<<<<<<<<<<<<<<<<<<<<<+FGO",
"o75Xooooooooooooooooooooooooooo..oooooooooooooooooooooooooooX57o",
"oooooooooooooooooooooooooooooooooooooooooooooooooooooooooooooooo"
};
