/* XPM */
static char *_6703060c604421393bc5b132c39ed27[] = {
/* columns rows colors chars-per-pixel */
"64 64 51 1 ",
"  c #190310",
". c #240518",
"X c #073343",
"o c #0F3443",
"O c #103D4F",
"+ c #3D2D4E",
"@ c #213246",
"# c #2A3247",
"$ c #2E3049",
"% c #51094A",
"& c #5C1F5A",
"* c #4F2654",
"= c #432B50",
"- c #552357",
"; c #502655",
": c #542457",
"> c #5E2757",
", c #483057",
"< c #6C275A",
"1 c #6C1062",
"2 c #6B1663",
"3 c #6A1863",
"4 c #6C1863",
"5 c #731363",
"6 c #731463",
"7 c #741463",
"8 c #791663",
"9 c #7A1764",
"0 c #7F1964",
"q c #7E1F65",
"w c #0E485E",
"e c #114255",
"r c #12485D",
"t c #17566F",
"y c #145770",
"u c #3F5679",
"i c #17607D",
"p c #48446B",
"a c #494C72",
"s c #554370",
"d c #574A72",
"f c #425F7D",
"g c #5F677E",
"h c #811A64",
"j c #841B65",
"k c #861C65",
"l c #176380",
"z c #176481",
"x c #236E85",
"c c #53838D",
"v c #46999B",
/* pixels */
"1111111111111111111111111111111%%1111111111111111111111111111111",
"1111111111111111111111111111111%%1111111111111111111111111111111",
"1111111111111111111111111111111%%1111111111111111111111111111111",
"1111111111111111111111111111111%%1111111111111111111111111111111",
"1111111111111111111111111111111%%1111111111111111111111111111111",
"1158888888888888888888888888887%%7888888888888888888888888888511",
"119h00000000000000000000000000h%%h00000000000000000000000000h911",
"119711111111111111111111111111h%%h111111111111111111111111117911",
"119711111111111111111111111111h%%h111111111111111111111111117911",
"119711111111111111111111111111h%%h111111111111111111111111117911",
"119711111111111111111111111111h%%h111111111111111111111111117911",
"11971k911111111111111111111111h%%h111111111111111111111119k17911",
"11971k91hkkkkkkkkkkkkkkkkkk111h%%h111kkkkkkkkkkkkkkkkkkh19k17911",
"11971111h11111111111111111h111h%%h111h11111111111111111h11117911",
"11971111h11111111111111111h111h%%h111h11111111111111111h11117911",
"11971111h11111500091111111h111h%%h111h11111119000511111h11117911",
"11971751h11177800007751111h111h%%h111h11115770000877111h15717911",
"11971k91h111hh01111hh85111h111h%%h111h11158hh11110hh111h19k17911",
"11971k91h119k111111110k111h111h%%h111h111k011111111k911h19k17911",
"11971111h17911111111111h11h111h%%h111h11h11111111111971h11117911",
"11971111h50111111111111h11h111h%%h111h11h11111111111105h11117911",
"11971111h5kkkk111111111501h111h%%h111h105111111111kkkk5h11117911",
"11971k91h5011jh8kk119k5501h111h%%h111h1055k911kk8hj1105h19k17911",
"11971k91h501115kkkj7kkk501h111h%%h111h105kkk7jkkk511105h19k17911",
"11971111h5k8115kkkkjkkk501h111h%%h111h105kkkjkkkk5118k5h11117911",
"11971111h19911170kkkkk7h01h111h%%h111h10h7kkkkk07111991h11117911",
"11971111h1599957689h881j71h111h%%h111h17j188h9867599951h11117911",
"11971111h1170k891118117h11h111h%%h111h11h711811198k0711h11117911",
"11971511h1111hk9151111h011h111h%%h111h110h1111519kh1111h11517911",
"11971k91h11111k91h1197h111h111h%%h111h111h7911h19k11111h19k17911",
"11971k91h111115k81kk905111h111h%%h111h111509kk18k511111h19k17911",
"11971111h111111881109k5111h111h%%h111h1115k901188111111h11117911",
"11971111h11111119517k71111h111h%%h111h11117k71591111111h11117911",
"11971111h11111111hkk911111h111h%%h111h111119kkh11111111h11117911",
"11971111h111111111111111gvvvc1h%%h1cvvvg111111111111111h11117911",
"11971111h111111111111111dxxxf1h%%h1fxxxd111111111111111h11117911",
"11971111h111111111111111szwiu1h%%h1uiwzs111111111111111h11117911",
"11971111h111111111111111szXiu1h%%h1uiXzs111111111111111h11117911",
"11971111h111111111111111szXiu1h%%h1uiXzs111111111111111h11117911",
"11971111h111111111111111szXiu1h%%h1uiXzs111111111111111h11117911",
"11971111h111111111111111szXiu1h%%h1uiXzs111111111111111h11117911",
"11971111h111111111111111szXiu1h%%h1uiXzs111111111111111h11117911",
"11971111h111111111111111szXiu1h%%h1uiXzs111111111111111h11117911",
"11971111h111111111111111szXiu1h%%h1uiXzs111111111111111h11117911",
"11971111h111111111111111szzzu1h%%h1uzzzs111111111111111h11117911",
"11971111h11111111111111123q421h%%h124q32111111111111111h11117911",
"11971111h11111111111111111h111h%%h111h11111111111111111h11117911",
"11971111h11111111111&p,111>a:1h%%h1:a>111,p&11111111111h11117911",
"11971111h11111111111*yO---$i+1h%%h1+i$---Oy*11111111111h11117911",
"11971111h11111111111*yreeeei+1h%%h1+ieeeery*11111111111h11117911",
"11971111h11111111111;tllllli+1h%%h1+illlllt;11111111111h11117911",
"11971111h111111111111=oooo<#11h%%h11@ooooo=111111111111h11117911",
"11971111h11111111111111111h111h%%h111h11111111111111111h11117911",
"11971111h11111111111111111h111h%%h111h11111111111111111h11117911",
"11971111h11111111111111111h111h%%h111h11111111111111111h11117911",
"11971111h11111111111111111h111h%%h111h11111111111111111h11117911",
"11971111h11111111111111111h111h%%h111h11111111111111111h11117911",
"11971111h11111111111111111h111h%%h111h11111111111111111h11117911",
"11971111h11111111111111111h111h%%h111h11111111111111111h11117911",
"11971111h11111111111111111h111h%%h111h11111111111111111h11117911",
"11971111h11111111111111111h111h%%h111h11111111111111111h11117911",
"11971111h11111111111111111h111h%%h111h11111111111111111h11117911",
"11971111h11111111111111111h111h%%h111h11111111111111111h11117911",
"...............................  ..............................."
};
